<?xml version="1.0" encoding="UTF-8" standalone="no"?>
<!-- Created with Inkscape (http://www.inkscape.org/) -->

<svg
   xmlns:dc="http://purl.org/dc/elements/1.1/"
   xmlns:cc="http://creativecommons.org/ns#"
   xmlns:rdf="http://www.w3.org/1999/02/22-rdf-syntax-ns#"
   xmlns:svg="http://www.w3.org/2000/svg"
   xmlns="http://www.w3.org/2000/svg"
   xmlns:xlink="http://www.w3.org/1999/xlink"
   xmlns:sodipodi="http://sodipodi.sourceforge.net/DTD/sodipodi-0.dtd"
   xmlns:inkscape="http://www.inkscape.org/namespaces/inkscape"
   width="206.82814mm"
   height="136.9817mm"
   viewBox="0 0 732.85562 485.36824"
   id="svg2"
   version="1.1"
   inkscape:version="0.91 r13725"
   sodipodi:docname="inheritance.svg">
  <defs
     id="defs4">
    <linearGradient
       id="linearGradient7723">
      <stop
         style="stop-color:#e1dcbb;stop-opacity:1;"
         offset="0"
         id="stop7725" />
      <stop
         id="stop7727"
         offset="0.5"
         style="stop-color:#00797f;stop-opacity:0.49803922;" />
      <stop
         style="stop-color:#000000;stop-opacity:0;"
         offset="1"
         id="stop7729" />
    </linearGradient>
    <linearGradient
       inkscape:collect="always"
       xlink:href="#linearGradient7723"
       id="linearGradient7680-1"
       gradientUnits="userSpaceOnUse"
       x1="1201.6013"
       y1="484.88452"
       x2="1215.4983"
       y2="401.34497" />
    <clipPath
       clipPathUnits="userSpaceOnUse"
       id="clipPath4840">
      <path
         inkscape:connector-curvature="0"
         d="m -9,-9 198,0 0,198 -198,0 0,-198 z"
         id="path4842"
         style="clip-rule:evenodd" />
    </clipPath>
    <linearGradient
       id="linearGradient3804">
      <stop
         id="stop3812"
         offset="0"
         style="stop-color:#c70000;stop-opacity:0.49803922;" />
      <stop
         style="stop-color:#cc2828;stop-opacity:0.24705882;"
         offset="0.5"
         id="stop3816" />
      <stop
         style="stop-color:#cc2828;stop-opacity:0;"
         offset="1"
         id="stop3808" />
    </linearGradient>
    <linearGradient
       id="linearGradient3818">
      <stop
         id="stop3822"
         offset="0"
         style="stop-color:#cc2828;stop-opacity:0.24705882;" />
      <stop
         style="stop-color:#cc2828;stop-opacity:0.23137255;"
         offset="0.0625"
         id="stop5280" />
      <stop
         style="stop-color:#cc2828;stop-opacity:0.21568627;"
         offset="0.125"
         id="stop5278" />
      <stop
         id="stop5282"
         offset="0.25"
         style="stop-color:#ea0a0a;stop-opacity:0.2;" />
      <stop
         style="stop-color:#cc2828;stop-opacity:0.18431373;"
         offset="0.25"
         id="stop5276" />
      <stop
         style="stop-color:#cc2828;stop-opacity:0.12156863;"
         offset="0.5"
         id="stop5274" />
      <stop
         id="stop3824"
         offset="1"
         style="stop-color:#cc2828;stop-opacity:0;" />
    </linearGradient>
    <linearGradient
       id="linearGradient7575">
      <stop
         style="stop-color:#ff2400;stop-opacity:1;"
         offset="0"
         id="stop7577" />
      <stop
         style="stop-color:#000000;stop-opacity:0;"
         offset="1"
         id="stop7579" />
    </linearGradient>
  </defs>
  <sodipodi:namedview
     id="base"
     pagecolor="#ffffff"
     bordercolor="#666666"
     borderopacity="1.0"
     inkscape:pageopacity="0.0"
     inkscape:pageshadow="2"
     inkscape:zoom="0.98994949"
     inkscape:cx="357.97684"
     inkscape:cy="272.08623"
     inkscape:document-units="px"
     inkscape:current-layer="layer1"
     showgrid="false"
     showguides="false"
     inkscape:window-width="1851"
     inkscape:window-height="1053"
     inkscape:window-x="69"
     inkscape:window-y="27"
     inkscape:window-maximized="1"
     fit-margin-top="0"
     fit-margin-left="0"
     fit-margin-right="0"
     fit-margin-bottom="0">
    <sodipodi:guide
       position="21.753051,737.36656"
       orientation="0,1"
       id="guide4178" />
  </sodipodi:namedview>
  <metadata
     id="metadata7">
    <rdf:RDF>
      <cc:Work
         rdf:about="">
        <dc:format>image/svg+xml</dc:format>
        <dc:type
           rdf:resource="http://purl.org/dc/dcmitype/StillImage" />
        <dc:title />
      </cc:Work>
    </rdf:RDF>
  </metadata>
  <g
     inkscape:label="Calque 1"
     inkscape:groupmode="layer"
     id="layer1"
     transform="translate(-3.5007632,-96.218051)">
    <rect
       style="color:#000000;clip-rule:nonzero;display:inline;overflow:visible;visibility:visible;opacity:1;isolation:auto;mix-blend-mode:normal;color-interpolation:sRGB;color-interpolation-filters:linearRGB;solid-color:#000000;solid-opacity:1;fill:#cdeae8;fill-opacity:1;fill-rule:nonzero;stroke:#26a69a;stroke-width:3.0999999;stroke-linecap:butt;stroke-linejoin:miter;stroke-miterlimit:4;stroke-dasharray:9.3, 9.3;stroke-dashoffset:0;stroke-opacity:1;color-rendering:auto;image-rendering:auto;shape-rendering:auto;text-rendering:auto;enable-background:accumulate"
       id="rect4253-6"
       width="520.0694"
       height="163.48553"
       x="214.737"
       y="416.55078"
       ry="18.577904" />
    <rect
       style="color:#000000;clip-rule:nonzero;display:inline;overflow:visible;visibility:visible;opacity:1;isolation:auto;mix-blend-mode:normal;color-interpolation:sRGB;color-interpolation-filters:linearRGB;solid-color:#000000;solid-opacity:1;fill:#93cadf;fill-opacity:0.4468665;fill-rule:nonzero;stroke:#286d86;stroke-width:3.0999999;stroke-linecap:butt;stroke-linejoin:miter;stroke-miterlimit:4;stroke-dasharray:9.3, 9.3;stroke-dashoffset:0;stroke-opacity:1;color-rendering:auto;image-rendering:auto;shape-rendering:auto;text-rendering:auto;enable-background:accumulate"
       id="rect4253"
       width="519.21838"
       height="311.12695"
       x="5.0507631"
       y="97.768051"
       ry="35.355339" />
    <text
       xml:space="preserve"
       style="font-style:normal;font-variant:normal;font-weight:bold;font-stretch:normal;font-size:27.5px;line-height:125%;font-family:Arial;-inkscape-font-specification:'Arial Bold';text-align:start;letter-spacing:0px;word-spacing:0px;writing-mode:lr-tb;text-anchor:start;fill:#000000;fill-opacity:1;stroke:none;stroke-width:1px;stroke-linecap:butt;stroke-linejoin:miter;stroke-opacity:1;"
       x="15.696864"
       y="147.45503"
       id="text4136"
       sodipodi:linespacing="125%"><tspan
         sodipodi:role="line"
         id="tspan4138"
         x="15.696864"
         y="147.45503">GeoMesh</tspan></text>
    <text
       xml:space="preserve"
       style="color:#000000;font-style:normal;font-variant:normal;font-weight:bold;font-stretch:normal;font-size:27.5px;line-height:125%;font-family:Arial;-inkscape-font-specification:'Arial Bold';text-indent:0;text-align:start;text-decoration:none;text-decoration-line:none;text-decoration-style:solid;text-decoration-color:#000000;letter-spacing:0px;word-spacing:0px;text-transform:none;direction:ltr;block-progression:tb;writing-mode:lr-tb;baseline-shift:baseline;text-anchor:start;white-space:normal;clip-rule:nonzero;display:inline;overflow:visible;visibility:visible;opacity:1;isolation:auto;mix-blend-mode:normal;color-interpolation:sRGB;color-interpolation-filters:linearRGB;solid-color:#000000;solid-opacity:1;fill:#000000;fill-opacity:1;fill-rule:nonzero;stroke:none;stroke-width:1px;stroke-linecap:butt;stroke-linejoin:miter;stroke-miterlimit:4;stroke-dasharray:none;stroke-dashoffset:0;stroke-opacity:1;color-rendering:auto;image-rendering:auto;shape-rendering:auto;text-rendering:auto;enable-background:accumulate;"
       x="230.47592"
       y="282.36697"
       id="text4136-3"
       sodipodi:linespacing="125%"><tspan
         sodipodi:role="line"
         id="tspan4138-6"
         x="230.47592"
         y="282.36697">RINGMesh</tspan></text>
    <text
       xml:space="preserve"
       style="color:#000000;font-style:normal;font-variant:normal;font-weight:bold;font-stretch:normal;font-size:27.5px;line-height:125%;font-family:Arial;-inkscape-font-specification:'Arial Bold';text-indent:0;text-align:start;text-decoration:none;text-decoration-line:none;text-decoration-style:solid;text-decoration-color:#000000;letter-spacing:0px;word-spacing:0px;text-transform:none;direction:ltr;block-progression:tb;writing-mode:lr-tb;baseline-shift:baseline;text-anchor:start;white-space:normal;clip-rule:nonzero;display:inline;overflow:visible;visibility:visible;opacity:1;isolation:auto;mix-blend-mode:normal;color-interpolation:sRGB;color-interpolation-filters:linearRGB;solid-color:#000000;solid-opacity:1;fill:#000000;fill-opacity:1;fill-rule:nonzero;stroke:none;stroke-width:1px;stroke-linecap:butt;stroke-linejoin:miter;stroke-miterlimit:4;stroke-dasharray:none;stroke-dashoffset:0;stroke-opacity:1;color-rendering:auto;image-rendering:auto;shape-rendering:auto;text-rendering:auto;enable-background:accumulate;"
       x="398.5246"
       y="473.2858"
       id="text4136-3-7"
       sodipodi:linespacing="125%"><tspan
         sodipodi:role="line"
         id="tspan4138-6-5"
         x="398.5246"
         y="473.2858">OpenGeode</tspan></text>
    <text
       xml:space="preserve"
       style="font-style:normal;font-variant:normal;font-weight:normal;font-stretch:normal;font-size:17.5px;line-height:125%;font-family:Arial;-inkscape-font-specification:Arial;text-align:start;letter-spacing:0px;word-spacing:0px;writing-mode:lr-tb;text-anchor:start;fill:#000000;fill-opacity:1;stroke:none;stroke-width:1px;stroke-linecap:butt;stroke-linejoin:miter;stroke-opacity:1;"
       x="27.526178"
       y="180.67726"
       id="text4136-9"
       sodipodi:linespacing="125%"><tspan
         sodipodi:role="line"
         id="tspan4138-9"
         x="27.526178"
         y="180.67726"
         style="font-size:22.5px;-inkscape-font-specification:Arial;font-family:Arial;font-weight:normal;font-style:normal;font-stretch:normal;font-variant:normal;">by: <tspan
   style="-inkscape-font-specification:'Arial Italic';font-family:Arial;font-weight:normal;font-style:italic;font-stretch:normal;font-variant:normal;fill:#646464;fill-opacity:1"
   id="tspan7795">J. Pellerin (at RING)</tspan></tspan><tspan
         sodipodi:role="line"
         x="27.526178"
         y="208.80226"
         id="tspan4198"
         style="font-size:22.5px;-inkscape-font-specification:Arial;font-family:Arial;font-weight:normal;font-style:normal;font-stretch:normal;font-variant:normal;">for: <tspan
   style="fill:#646464;fill-opacity:1;-inkscape-font-specification:'Arial Italic';font-family:Arial;font-weight:normal;font-style:italic;font-stretch:normal;font-variant:normal"
   id="tspan7803">one article</tspan></tspan><tspan
         sodipodi:role="line"
         x="27.526178"
         y="236.92726"
         id="tspan4200"
         style="font-size:22.5px;-inkscape-font-specification:Arial;font-family:Arial;font-weight:normal;font-style:normal;font-stretch:normal;font-variant:normal;">start: <tspan
   style="-inkscape-font-specification:'Arial Italic';font-family:Arial;font-weight:normal;font-style:italic;font-stretch:normal;font-variant:normal;fill:#646464;fill-opacity:1"
   id="tspan7799">2013</tspan></tspan></text>
    <text
       sodipodi:linespacing="125%"
       id="text4202"
       y="310.98694"
       x="271.98309"
       style="font-style:normal;font-variant:normal;font-weight:normal;font-stretch:normal;font-size:17.5px;line-height:125%;font-family:Arial;-inkscape-font-specification:Arial;text-align:start;letter-spacing:0px;word-spacing:0px;writing-mode:lr-tb;text-anchor:start;fill:#000000;fill-opacity:1;stroke:none;stroke-width:1px;stroke-linecap:butt;stroke-linejoin:miter;stroke-opacity:1;"
       xml:space="preserve"><tspan
         style="font-size:22.5px;-inkscape-font-specification:Arial;font-family:Arial;font-weight:normal;font-style:normal;font-stretch:normal;font-variant:normal;"
         y="310.98694"
         x="271.98309"
         id="tspan4204"
         sodipodi:role="line">by: <tspan
   style="fill:#646464;fill-opacity:1;-inkscape-font-specification:'Arial Italic';font-family:Arial;font-weight:normal;font-style:italic;font-stretch:normal;font-variant:normal"
   id="tspan7809">RING team</tspan></tspan><tspan
         style="font-size:22.5px;-inkscape-font-specification:Arial;font-family:Arial;font-weight:normal;font-style:normal;font-stretch:normal;font-variant:normal;"
         id="tspan4206"
         y="339.11194"
         x="271.98309"
         sodipodi:role="line">for: <tspan
   style="fill:#646464;fill-opacity:1;-inkscape-font-specification:'Arial Italic';font-family:Arial;font-weight:normal;font-style:italic;font-stretch:normal;font-variant:normal"
   id="tspan7805">RING research</tspan></tspan><tspan
         style="font-size:22.5px;-inkscape-font-specification:Arial;font-family:Arial;font-weight:normal;font-style:normal;font-stretch:normal;font-variant:normal;"
         id="tspan4208"
         y="367.23694"
         x="271.98309"
         sodipodi:role="line">start: <tspan
   style="fill:#646464;fill-opacity:1;-inkscape-font-specification:'Arial Italic';font-family:Arial;font-weight:normal;font-style:italic;font-stretch:normal;font-variant:normal"
   id="tspan7811">2015</tspan></tspan></text>
    <text
       sodipodi:linespacing="125%"
       id="text4202-0"
       y="499.62061"
       x="439.49533"
       style="font-style:normal;font-variant:normal;font-weight:normal;font-stretch:normal;font-size:17.5px;line-height:125%;font-family:Arial;-inkscape-font-specification:Arial;text-align:start;letter-spacing:0px;word-spacing:0px;writing-mode:lr-tb;text-anchor:start;fill:#000000;fill-opacity:1;stroke:none;stroke-width:1px;stroke-linecap:butt;stroke-linejoin:miter;stroke-opacity:1;"
       xml:space="preserve"><tspan
         style="font-size:22.5px;-inkscape-font-specification:Arial;font-family:Arial;font-weight:normal;font-style:normal;font-stretch:normal;font-variant:normal;"
         y="499.62061"
         x="439.49533"
         id="tspan4204-7"
         sodipodi:role="line">by: <tspan
   style="fill:#646464;fill-opacity:1;-inkscape-font-specification:'Arial Italic';font-family:Arial;font-weight:normal;font-style:italic;font-stretch:normal;font-variant:normal"
   id="tspan7813">Geode-solutions</tspan></tspan><tspan
         style="font-size:22.5px;-inkscape-font-specification:Arial;font-family:Arial;font-weight:normal;font-style:normal;font-stretch:normal;font-variant:normal;"
         id="tspan4206-6"
         y="527.74561"
         x="439.49533"
         sodipodi:role="line">for: <tspan
   style="fill:#646464;fill-opacity:1;-inkscape-font-specification:'Arial Italic';font-family:Arial;font-weight:normal;font-style:italic;font-stretch:normal;font-variant:normal"
   id="tspan7815">intrustrial &amp; researchers</tspan></tspan><tspan
         style="font-size:22.5px;-inkscape-font-specification:Arial;font-family:Arial;font-weight:normal;font-style:normal;font-stretch:normal;font-variant:normal;"
         y="555.87061"
         x="439.49533"
         sodipodi:role="line"
         id="tspan7793">start: <tspan
   style="fill:#646464;fill-opacity:1;-inkscape-font-specification:'Arial Italic';font-family:Arial;font-weight:normal;font-style:italic;font-stretch:normal;font-variant:normal"
   id="tspan7817">2019</tspan></tspan><tspan
         style="font-size:22.5px;-inkscape-font-specification:Arial;font-family:Arial;font-weight:normal;font-style:normal;font-stretch:normal;font-variant:normal;"
         id="tspan4208-3"
         y="583.99561"
         x="439.49533"
         sodipodi:role="line" /></text>
    <g
       transform="matrix(0.19257623,0,0,0.19257623,-118.73608,226.10475)"
       id="layer1-0"
       inkscape:label="Layer 1">
      <path
         inkscape:connector-curvature="0"
         id="path5950"
         d=""
         style="fill:#c06a1d;fill-opacity:1;stroke:none" />
      <path
         inkscape:connector-curvature="0"
         id="path4420"
         d=""
         style="opacity:0.93999999;fill:#ff8600;fill-opacity:1;stroke:#000000;stroke-width:0.45742756;stroke-linecap:round;stroke-linejoin:miter;stroke-miterlimit:4;stroke-dasharray:none;stroke-dashoffset:0;stroke-opacity:1" />
      <path
         inkscape:connector-curvature="0"
         id="path6120"
         d=""
         style="color:#000000;display:inline;overflow:visible;visibility:visible;fill:#dc9b05;fill-opacity:1;stroke:#ffffff;stroke-width:0.28589222;stroke-linecap:butt;stroke-linejoin:miter;stroke-miterlimit:4;stroke-dasharray:none;stroke-dashoffset:0;stroke-opacity:1;marker:none;enable-background:accumulate" />
      <path
         inkscape:connector-curvature="0"
         id="path6300"
         d=""
         style="color:#000000;display:inline;overflow:visible;visibility:visible;fill:#16aba2;fill-opacity:0.94117653;stroke:#ffffff;stroke-width:0.32345012;stroke-linecap:butt;stroke-linejoin:miter;stroke-miterlimit:4;stroke-dasharray:none;stroke-dashoffset:0;stroke-opacity:1;marker:none;enable-background:accumulate" />
      <text
         sodipodi:linespacing="125%"
         id="text7571"
         y="605.48712"
         x="255.89503"
         style="font-style:normal;font-weight:bold;font-size:10px;line-height:125%;font-family:Sans;-inkscape-font-specification:'Sans Bold';letter-spacing:0px;word-spacing:0px;fill:#000000;fill-opacity:1;stroke:none"
         xml:space="preserve"><tspan
           style="font-size:5px"
           y="605.48712"
           x="255.89503"
           id="tspan7573"
           sodipodi:role="line" /></text>
      <path
         inkscape:connector-curvature="0"
         id="path7928"
         d=""
         style="color:#000000;display:inline;overflow:visible;visibility:visible;fill:#3797b9;fill-opacity:1;stroke:none;stroke-width:2;marker:none;enable-background:accumulate" />
      <g
         id="g4236">
        <path
           style="fill:none;stroke:#1a1a1a;stroke-width:31.52270889;stroke-linecap:round;stroke-linejoin:miter;stroke-miterlimit:4;stroke-dasharray:none;stroke-opacity:1"
           d="m 1217.4358,760.1611 c 0.1345,-53.1238 0.2117,-110.73 0,-158.4294 118.9526,-2.6346 89.6985,104.3483 27.8459,104.7476 l 56.3633,53.6818"
           id="path4434-2-4-5-3-2-9"
           inkscape:connector-curvature="0"
           sodipodi:nodetypes="cccc"
           inkscape:export-filename="/data/GasperCloud/ring_consortium/logo/g3611.png"
           inkscape:export-xdpi="300"
           inkscape:export-ydpi="300" />
        <path
           style="fill:none;stroke:#1a1a1a;stroke-width:32.29319;stroke-linecap:round;stroke-linejoin:miter;stroke-miterlimit:4;stroke-dasharray:none;stroke-opacity:1"
           d="m 1662.9528,686.2132 42.3567,0.3804 0,53.3593 c 0,0 -13.3952,19.9265 -53.3879,19.8226 -33.7474,-0.089 -63.5134,-33.0355 -59.4533,-81.9482 5.3179,-66.696 63.5991,-95.1018 112.8412,-61.7443"
           id="path4440-2-6-3-5-3-5"
           inkscape:connector-curvature="0"
           sodipodi:nodetypes="cccscc"
           inkscape:export-filename="/data/GasperCloud/ring_consortium/logo/g3611.png"
           inkscape:export-xdpi="300"
           inkscape:export-ydpi="300" />
        <g
           style="stroke:#1a1a1a;stroke-width:4.84230947;stroke-miterlimit:4;stroke-dasharray:none;stroke-opacity:1"
           id="g4446-5-5-8-7-8-6"
           transform="matrix(6.0868282,-2.9618653,3.2128576,5.6113178,242.42212,-625.16575)"
           inkscape:export-filename="/data/GasperCloud/ring_consortium/logo/g3611.png"
           inkscape:export-xdpi="300"
           inkscape:export-ydpi="300">
          <path
             inkscape:connector-curvature="0"
             id="path4424-8-6-3-3-2-1"
             d="M 52.753191,246.52606 41.129243,268.54788"
             style="fill:none;stroke:#1a1a1a;stroke-width:4.84230947;stroke-linecap:round;stroke-linejoin:miter;stroke-miterlimit:4;stroke-dasharray:none;stroke-opacity:1"
             sodipodi:nodetypes="cc" />
        </g>
        <path
           style="color:#000000;font-style:normal;font-variant:normal;font-weight:normal;font-stretch:normal;font-size:medium;line-height:normal;font-family:Sans;-inkscape-font-specification:Sans;text-indent:0;text-align:start;text-decoration:none;text-decoration-line:none;letter-spacing:normal;word-spacing:normal;text-transform:none;direction:ltr;block-progression:tb;writing-mode:lr-tb;baseline-shift:baseline;text-anchor:start;display:inline;overflow:visible;visibility:visible;fill:#1a1a1a;fill-opacity:1;stroke:none;stroke-width:32;marker:none;enable-background:accumulate"
           d="m 1393.7442,585.9225 0,37.804 0,7.6023 26.3707,23.7872 7.1867,6.4739 0,-0.059 98.4448,89.0309 28.0338,25.3611 0,-37.804 0,-7.4242 -33.5575,-30.3798 -18.7386,-16.9569 -79.7061,-72.0741 -28.0338,-25.361 z m 143.2573,5.7908 c -4.4222,0 -8.798,1.8457 -11.9085,4.9891 -3.1106,3.1433 -4.9166,7.5458 -4.8703,11.9678 l 0,45.8221 0,19.8672 33.5575,30.3501 0,-96.0394 c 0.046,-4.422 -1.7301,-8.8245 -4.8406,-11.9678 -3.1107,-3.1434 -7.5159,-4.9891 -11.9381,-4.9891 z m -143.2573,65.5408 0,97.6133 c -0.047,4.4228 1.7597,8.8533 4.8703,11.9975 3.1108,3.1443 7.4855,4.9594 11.9084,4.9594 4.4229,0 8.8275,-1.8151 11.938,-4.9594 3.1108,-3.1442 4.8881,-7.5747 4.8407,-11.9975 l 0,-67.2929 -33.5574,-30.3204 z"
           id="path4394-7-6-4-4-0-6"
           inkscape:connector-curvature="0"
           inkscape:export-filename="/data/GasperCloud/ring_consortium/logo/g3611.png"
           inkscape:export-xdpi="300"
           inkscape:export-ydpi="300" />
        <path
           style="color:#000000;display:inline;overflow:visible;visibility:visible;fill:#3797b9;fill-opacity:1;fill-rule:nonzero;stroke:none;stroke-width:7.41902685;marker:none;enable-background:accumulate"
           d="m 1000.2301,525.3416 c -25.7134,0 -49.989,6.3048 -71.3567,17.3517 2.2785,5.7145 3.5094,11.9945 3.5094,18.5216 0,27.565 -22.34563,49.9106 -49.91066,49.9106 -6.81468,0 -13.28591,-1.3291 -19.20406,-3.8018 -3.4847,6.4676 -6.49899,13.2123 -9.06565,20.1788 26.4592,12.4735 44.84161,39.3857 44.84161,70.5768 0,25.9065 -12.72847,48.8886 -32.16898,63.0706 27.22876,45.1779 76.77474,75.3534 133.35504,75.3534 6.5795,0 13.0338,-0.4739 19.3987,-1.2672 -5.4686,-6.9112 -8.7734,-15.6528 -8.7734,-25.1503 0,-22.3968 18.156,-40.5524 40.5525,-40.5524 21.2295,0 38.5999,16.3656 40.3574,37.1405 38.8024,-28.2948 64.0457,-74.0652 64.0457,-125.7514 0,-23.1746 -5.0438,-45.1602 -14.135,-64.9229 -37.721,-1.1887 -67.9447,-32.0796 -67.9447,-70.0894 0,-0.6879 0.078,-1.3639 0.097,-2.0471 -21.9092,-11.7854 -46.9837,-18.5215 -73.5985,-18.5215 z"
           id="path4520-1-9-1-1"
           inkscape:connector-curvature="0"
           inkscape:export-filename="/data/GasperCloud/ring_consortium/logo/g3611.png"
           inkscape:export-xdpi="300"
           inkscape:export-ydpi="300" />
        <path
           inkscape:connector-curvature="0"
           id="path4520-88-3-1-1-1-1-4"
           d="m 884.95925,698.1235 c 0,35.3178 -28.63062,63.9481 -63.94803,63.9481 -35.31759,0 -63.9479,-28.6303 -63.9479,-63.9481 0,-35.3174 28.63031,-63.948 63.9479,-63.948 35.31741,0 63.94803,28.6306 63.94803,63.948 z"
           style="color:#000000;display:inline;overflow:visible;visibility:visible;fill:#3797b9;fill-opacity:1;fill-rule:nonzero;stroke:#ffffff;stroke-width:0;stroke-linecap:round;stroke-linejoin:round;stroke-miterlimit:4;stroke-dasharray:none;stroke-dashoffset:0;stroke-opacity:1;marker:none;enable-background:accumulate"
           inkscape:export-filename="/data/GasperCloud/ring_consortium/logo/g3611.png"
           inkscape:export-xdpi="300"
           inkscape:export-ydpi="300" />
        <path
           inkscape:connector-curvature="0"
           id="path4520-88-1-4-7-6-8-9"
           d="m 919.92198,561.1909 c 0,20.6736 -16.75938,37.4329 -37.433,37.4329 -20.67361,0 -37.43299,-16.7593 -37.43299,-37.4329 0,-20.6736 16.75938,-37.433 37.43299,-37.433 20.67362,0 37.433,16.7594 37.433,37.433 z"
           style="color:#000000;display:inline;overflow:visible;visibility:visible;fill:#3797b9;fill-opacity:1;fill-rule:nonzero;stroke:none;stroke-width:0;marker:none;enable-background:accumulate"
           inkscape:export-filename="/data/GasperCloud/ring_consortium/logo/g3611.png"
           inkscape:export-xdpi="300"
           inkscape:export-ydpi="300" />
        <path
           inkscape:connector-curvature="0"
           id="path4520-88-9-1-2-8-5"
           d="m 1201.6745,545.8889 c 0,31.872 -25.8372,57.7092 -57.7092,57.7092 -31.8717,0 -57.7092,-25.8372 -57.7092,-57.7092 0,-31.872 25.8375,-57.7092 57.7092,-57.7092 31.872,0 57.7092,25.8372 57.7092,57.7092 z"
           style="color:#000000;display:inline;overflow:visible;visibility:visible;fill:#3797b9;fill-opacity:1;fill-rule:nonzero;stroke:#ffffff;stroke-width:0;stroke-linecap:round;stroke-linejoin:round;stroke-miterlimit:4;stroke-dasharray:none;stroke-dashoffset:0;stroke-opacity:1;marker:none;enable-background:accumulate"
           inkscape:export-filename="/data/GasperCloud/ring_consortium/logo/g3611.png"
           inkscape:export-xdpi="300"
           inkscape:export-ydpi="300" />
        <path
           inkscape:connector-curvature="0"
           id="path4520-88-7-0-6-5-5-4"
           d="m 1079.4817,810.105 c 0,15.505 -12.5697,28.0747 -28.0748,28.0747 -15.5053,0 -28.0747,-12.5697 -28.0747,-28.0747 0,-15.5054 12.5694,-28.0748 28.0747,-28.0748 15.5051,0 28.0748,12.5694 28.0748,28.0748 z"
           style="color:#000000;display:inline;overflow:visible;visibility:visible;fill:#3797b9;fill-opacity:1;fill-rule:nonzero;stroke:#ff0000;stroke-width:0;stroke-linecap:round;stroke-linejoin:round;stroke-miterlimit:4;stroke-dasharray:none;stroke-dashoffset:0;stroke-opacity:1;marker:none;enable-background:accumulate"
           inkscape:export-filename="/data/GasperCloud/ring_consortium/logo/g3611.png"
           inkscape:export-xdpi="300"
           inkscape:export-ydpi="300" />
      </g>
    </g>
    <g
       transform="matrix(0.41237815,0,0,0.41237815,256.88437,210.90436)"
       id="layer1-8"
       inkscape:label="Calque 1">
      <g
         inkscape:export-ydpi="300"
         inkscape:export-xdpi="300"
         id="g5905"
         transform="matrix(1.2107584,0,0,1.2107584,1785.9613,-6431.8514)">
        <path
           style="color:#000000;clip-rule:nonzero;display:inline;overflow:visible;visibility:visible;opacity:1;isolation:auto;mix-blend-mode:normal;color-interpolation:sRGB;color-interpolation-filters:linearRGB;solid-color:#000000;solid-opacity:1;fill:#4db6ac;fill-opacity:1;fill-rule:evenodd;stroke:none;stroke-width:0.25253814px;stroke-linecap:butt;stroke-linejoin:miter;stroke-miterlimit:4;stroke-dasharray:none;stroke-dashoffset:0;stroke-opacity:1;color-rendering:auto;image-rendering:auto;shape-rendering:auto;text-rendering:auto;enable-background:accumulate"
           d="m -1429.9757,5854.2313 -4.6014,-1.1491 2.6404,-3.0011 c 2.5119,-2.8548 11.0219,-9.9486 15.3639,-13.5987 28.9281,-24.3191 64.6926,-43.7971 92.104,-50.7907 8.7063,-2.2212 12.3169,-3.1303 20.2718,-3.1252 6.6601,0 8.136,1.033 10.9071,1.7853 1.6218,0.4402 3.256,1.2867 4.4305,1.8813 6.0693,1.6309 4.0224,6.0349 4.0292,6.0833 0,4.6436 -2.8383,10.5357 -6.8693,15.8734 -1.2798,1.6948 -4.0107,4.7269 -6.0687,6.7381 -3.5656,3.4846 -4.4421,4.0826 -5.3857,3.8803 -8.2317,-1.7641 -18.3115,-1.7038 -28.2594,-0.028 -17.2247,2.9024 -35.5904,10.6626 -53.3886,22.6039 -5.9963,4.023 -10.4772,7.0805 -14.9826,10.4743 l -4.065,4.1543 -7.5226,0.2854 c -8.614,-0.3213 -12.24,-0.5647 -18.6036,-2.0673 z"
           id="path5865"
           inkscape:connector-curvature="0"
           sodipodi:nodetypes="ccssscccccscsssccc" />
        <path
           style="color:#000000;clip-rule:nonzero;display:inline;overflow:visible;visibility:visible;opacity:1;isolation:auto;mix-blend-mode:normal;color-interpolation:sRGB;color-interpolation-filters:linearRGB;solid-color:#000000;solid-opacity:1;fill:#4db6ac;fill-opacity:1;fill-rule:evenodd;stroke:none;stroke-width:0.25253814px;stroke-linecap:butt;stroke-linejoin:miter;stroke-miterlimit:4;stroke-dasharray:none;stroke-dashoffset:0;stroke-opacity:1;color-rendering:auto;image-rendering:auto;shape-rendering:auto;text-rendering:auto;enable-background:accumulate"
           d="m -1445.8156,5847.4574 c -2.326,-1.6864 -4.9082,-4.1924 -6.1937,-6.8085 -1.8672,-3.8001 -3.3804,-7.4446 -3.4186,-12.2024 l 0.077,-4.6676 3.3298,-5.8713 c 12.6952,-20.1117 28.4557,-33.3356 51.4095,-43.2094 8.2897,-3.5658 20.4619,-7.0258 29.5271,-8.4151 16.4538,-3.6426 8.9305,-0.1613 4.1707,1.5792 -19.6547,7.1868 -37.8553,17.2443 -49.504,28.7729 -12.6537,12.5233 -20.041,26.7158 -25.4579,44.6938 -1.7142,5.6892 -0.8318,8.1774 -2.3056,7.1089 z"
           id="path5867"
           inkscape:connector-curvature="0"
           sodipodi:nodetypes="cccccccssscc" />
        <path
           style="color:#000000;clip-rule:nonzero;display:inline;overflow:visible;visibility:visible;opacity:1;isolation:auto;mix-blend-mode:normal;color-interpolation:sRGB;color-interpolation-filters:linearRGB;solid-color:#000000;solid-opacity:1;fill:#b2dfdb;fill-opacity:1;fill-rule:evenodd;stroke:none;stroke-width:0.25253814px;stroke-linecap:butt;stroke-linejoin:miter;stroke-miterlimit:4;stroke-dasharray:none;stroke-dashoffset:0;stroke-opacity:1;color-rendering:auto;image-rendering:auto;shape-rendering:auto;text-rendering:auto;enable-background:accumulate"
           d="m -1399.3552,5885.2863 c -11.1158,-0.6655 -17.5782,-1.4321 -24.6238,-2.921 -10.5554,-2.2306 -18.6302,-5.3839 -25.4466,-9.9371 -2.8836,-1.9262 -7.4804,-6.5012 -9.1912,-9.1476 -5.6647,-8.7628 -5.3267,-20.2216 0.9864,-33.4316 l 1.6197,-3.3895 0.065,2.5602 c 0.1613,6.3307 2.3054,11.7058 6.4097,16.0687 5.6846,6.0427 13.5411,9.4841 25.8386,11.3182 4.5668,0.681 20.784,0.7801 26.1907,0.16 14.2585,-1.6354 27.0162,-4.3371 40.4195,-8.5598 23.6154,-7.4402 44.8805,-18.5751 57.7273,-30.2277 9.4885,-8.6065 14.4166,-16.8597 15.0552,-25.2135 l 0.1884,-2.465 5.1296,5.0841 c 5.7117,5.6611 9.14,10.0228 11.6496,14.8217 2.9156,5.5754 4.0193,9.792 4.0193,15.3554 0,6.0884 -1.563,10.9237 -5.3909,16.677 -14.2387,21.4013 -57.3214,38.7399 -105.9967,42.6584 -5.6412,0.4541 -20.8383,0.8173 -24.6501,0.5891 z"
           id="path5869"
           inkscape:connector-curvature="0" />
        <path
           style="color:#000000;clip-rule:nonzero;display:inline;overflow:visible;visibility:visible;opacity:1;isolation:auto;mix-blend-mode:normal;color-interpolation:sRGB;color-interpolation-filters:linearRGB;solid-color:#000000;solid-opacity:1;fill:#4db6ac;fill-opacity:1;fill-rule:evenodd;stroke:none;stroke-width:0.25253814px;stroke-linecap:butt;stroke-linejoin:miter;stroke-miterlimit:4;stroke-dasharray:none;stroke-dashoffset:0;stroke-opacity:1;color-rendering:auto;image-rendering:auto;shape-rendering:auto;text-rendering:auto;enable-background:accumulate"
           d="m -1442.8966,5916.7291 c -3.1021,-0.5428 -6.7555,-1.737 -8.574,-2.8027 -3.2179,-1.8858 -6.586,-6.7869 -7.6923,-11.1933 -0.6791,-2.7051 -0.4553,-8.7678 0.4476,-12.1265 1.2525,-4.6596 4.3705,-11.4253 7.364,-15.979 l 0.7443,-1.1323 1.9002,1.2374 c 4.3583,2.8381 12.3029,6.1037 19.3419,7.9503 l 2.6514,0.6956 -0.8777,2.0892 c -2.1914,5.2156 -2.9123,12.1077 -1.6903,16.1584 1.665,5.5187 5.0962,9.4172 10.985,12.4808 1.4303,0.7442 2.4642,1.3935 2.2975,1.4428 -0.1667,0.049 -2.3829,0.3895 -4.925,0.7556 -6.0374,0.8696 -18.0945,1.102 -21.9726,0.4237 z"
           id="path5871"
           inkscape:connector-curvature="0" />
        <path
           style="color:#000000;clip-rule:nonzero;display:inline;overflow:visible;visibility:visible;opacity:1;isolation:auto;mix-blend-mode:normal;color-interpolation:sRGB;color-interpolation-filters:linearRGB;solid-color:#000000;solid-opacity:1;fill:#b2dfdb;fill-opacity:1;fill-rule:evenodd;stroke:none;stroke-width:0.25253814px;stroke-linecap:butt;stroke-linejoin:miter;stroke-miterlimit:4;stroke-dasharray:none;stroke-dashoffset:0;stroke-opacity:1;color-rendering:auto;image-rendering:auto;shape-rendering:auto;text-rendering:auto;enable-background:accumulate"
           d="m -1435.3783,5945.5415 c -7.6467,-0.8749 -13.6505,-3.0932 -16.8877,-6.2394 -3.7969,-3.6901 -6.8173,-10.2245 -8.0787,-17.4775 -0.6534,-3.757 -0.9394,-10.5368 -0.6434,-15.251 l 0.2321,-3.6962 0.5266,1.7022 c 1.2789,4.1334 4.8973,8.9096 8.1245,10.7241 3.9064,2.1963 8.2672,3.1272 15.686,3.3481 10.5573,0.3146 21.3033,-1.2208 39.2761,-5.6115 11.6583,-2.8481 20.3335,-5.3145 46.6256,-13.2559 44.0914,-13.3174 59.3012,-16.9496 75.686,-18.0743 16.1972,-1.1118 25.1446,2.7938 28.0456,12.2423 0.8223,2.6784 0.7435,9.3561 -0.1609,13.6255 -1.342,6.3356 -4.2971,14.676 -8.0346,22.6765 l -1.2752,2.7295 -0.9418,-1.4219 c -2.5331,-3.8242 -7.8961,-6.4578 -15.5172,-7.6199 -3.9114,-0.5963 -16.2244,-0.5158 -22.3391,0.1463 -14.015,1.5174 -24.4373,3.3779 -57.4656,10.2588 -33.85,7.0519 -45.967,9.2148 -60.2386,10.7526 -5.2764,0.5685 -19.1447,0.8394 -22.6197,0.4417 z"
           id="path5873"
           inkscape:connector-curvature="0" />
        <path
           style="color:#000000;clip-rule:nonzero;display:inline;overflow:visible;visibility:visible;opacity:1;isolation:auto;mix-blend-mode:normal;color-interpolation:sRGB;color-interpolation-filters:linearRGB;solid-color:#000000;solid-opacity:1;fill:#4db6ac;fill-opacity:1;fill-rule:evenodd;stroke:none;stroke-width:0.25253814px;stroke-linecap:butt;stroke-linejoin:miter;stroke-miterlimit:4;stroke-dasharray:none;stroke-dashoffset:0;stroke-opacity:1;color-rendering:auto;image-rendering:auto;shape-rendering:auto;text-rendering:auto;enable-background:accumulate"
           d="m -1364.2288,5991.5802 c -3.146,-0.1904 -7.6101,-0.7389 -8.059,-0.9901 -0.2747,-0.1536 0.3738,-0.4423 1.8129,-0.807 8.284,-2.0993 20.9062,-6.1604 28.7393,-9.2464 5.24,-2.0645 17.2235,-8.0506 21.4348,-10.7073 15.9778,-10.0797 28.1436,-22.8041 39.5863,-41.4039 1.1388,-1.8511 2.1044,-3.4059 2.1458,-3.455 0.2187,-0.2599 7.4723,0.709 9.8806,1.3198 5.2099,1.3213 9.2679,4.0107 10.9108,7.2311 l 0.6662,1.3059 -1.7478,3.1276 c -15.6994,28.092 -43.6588,46.1619 -80.6014,52.0916 -6.9149,1.11 -19.2002,1.8707 -24.7685,1.5337 z"
           id="path5875"
           inkscape:connector-curvature="0" />
        <path
           inkscape:connector-curvature="0"
           style="color:#000000;clip-rule:nonzero;display:inline;overflow:visible;visibility:visible;opacity:1;isolation:auto;mix-blend-mode:normal;color-interpolation:sRGB;color-interpolation-filters:linearRGB;solid-color:#000000;solid-opacity:1;fill:#26a69a;fill-opacity:1;fill-rule:evenodd;stroke:none;stroke-width:2.3039999;stroke-linecap:butt;stroke-linejoin:miter;stroke-miterlimit:10;stroke-dasharray:none;stroke-dashoffset:0;stroke-opacity:1;color-rendering:auto;image-rendering:auto;shape-rendering:auto;text-rendering:auto;enable-background:accumulate"
           d="m -1291.0621,5785.1712 c -1.6244,7.1106 -6.391,14.1974 -14.4865,21.5403 -4.0925,3.7121 -9.046,7.3696 -14.6509,10.8739 6.0793,-0.2654 11.9213,0.1243 17.0459,1.2225 0.9436,0.2023 1.82,-0.3951 5.3856,-3.8796 2.058,-2.0112 4.7898,-5.0444 6.0696,-6.7392 4.031,-5.3378 6.868,-11.2298 6.868,-15.8735 -0.01,-0.049 2.0396,-4.4506 -4.0298,-6.0815 -0.626,-0.3169 -1.3861,-0.7025 -2.2019,-1.0629 z m -96.0866,57.8079 c -5.368,1.0266 -10.8338,1.8638 -16.5455,2.5189 -4.6276,0.5307 -17.1278,0.5322 -23.511,0.095 -2.0098,1.7888 -3.8174,3.4496 -4.7304,4.4873 l -2.6403,3.0026 4.5992,1.1486 c 6.3637,1.5026 9.9903,1.7449 18.6044,2.0662 l 7.5232,-0.286 4.0655,-4.1537 c 3.8487,-2.8992 7.8621,-5.6595 12.6349,-8.8793 z"
           id="path5877" />
        <path
           inkscape:connector-curvature="0"
           style="color:#000000;clip-rule:nonzero;display:inline;overflow:visible;visibility:visible;opacity:1;isolation:auto;mix-blend-mode:normal;color-interpolation:sRGB;color-interpolation-filters:linearRGB;solid-color:#000000;solid-opacity:1;fill:#26a69a;fill-opacity:1;fill-rule:evenodd;stroke:none;stroke-width:2.3039999;stroke-linecap:butt;stroke-linejoin:miter;stroke-miterlimit:10;stroke-dasharray:none;stroke-dashoffset:0;stroke-opacity:1;color-rendering:auto;image-rendering:auto;shape-rendering:auto;text-rendering:auto;enable-background:accumulate"
           d="m -1459.4383,5900.9085 c 0.065,0.6883 0.1513,1.327 0.2765,1.8253 1.1063,4.4065 4.4722,9.3074 7.6901,11.1933 1.8185,1.0656 5.4721,2.2596 8.5741,2.8024 3.8781,0.6784 15.9366,0.4454 21.9741,-0.4242 2.542,-0.3662 4.7566,-0.7066 4.9233,-0.7554 0.1667,-0.049 -0.8669,-0.6976 -2.2973,-1.4418 -3.163,-1.6456 -5.5948,-3.5465 -7.447,-5.7955 -4.6869,0.5202 -8.9256,0.7038 -13.1138,0.579 -7.4188,-0.2209 -11.7812,-1.1518 -15.6875,-3.3481 -1.6521,-0.9289 -3.4017,-2.6374 -4.8925,-4.635 z"
           id="path5879" />
        <path
           inkscape:connector-curvature="0"
           style="color:#000000;clip-rule:nonzero;display:inline;overflow:visible;visibility:visible;opacity:1;isolation:auto;mix-blend-mode:normal;color-interpolation:sRGB;color-interpolation-filters:linearRGB;solid-color:#000000;solid-opacity:1;fill:#26a69a;fill-opacity:1;fill-rule:evenodd;stroke:none;stroke-width:2.3039999;stroke-linecap:butt;stroke-linejoin:miter;stroke-miterlimit:10;stroke-dasharray:none;stroke-dashoffset:0;stroke-opacity:1;color-rendering:auto;image-rendering:auto;shape-rendering:auto;text-rendering:auto;enable-background:accumulate"
           d="m -1454.3648,5835.0269 c 0.613,1.9359 1.4399,3.7602 2.3545,5.6216 1.2855,2.6162 3.8676,5.1221 6.1936,6.8084 l 1.6347,0.9817 c 1.393,1.01 0.7081,-1.1944 2.0732,-6.2387 -5.0207,-1.7484 -8.9848,-4.0866 -12.256,-7.173 z"
           id="path5881" />
        <path
           style="color:#000000;clip-rule:nonzero;display:inline;overflow:visible;visibility:visible;opacity:1;isolation:auto;mix-blend-mode:normal;color-interpolation:sRGB;color-interpolation-filters:linearRGB;solid-color:#000000;solid-opacity:1;fill:#26a69a;fill-opacity:1;fill-rule:evenodd;stroke:none;stroke-width:2.3039999;stroke-linecap:butt;stroke-linejoin:miter;stroke-miterlimit:10;stroke-dasharray:none;stroke-dashoffset:0;stroke-opacity:1;color-rendering:auto;image-rendering:auto;shape-rendering:auto;text-rendering:auto;enable-background:accumulate"
           d="m -1278.1794,5924.9271 c -0.2239,0 -0.3611,0.012 -0.3884,0.043 -0.042,0.049 -1.0084,1.6044 -2.1471,3.4554 -0.5312,0.8634 -1.0645,1.702 -1.599,2.5403 5.7013,-0.1684 11.899,-0.095 14.4793,0.298 4.2987,0.6554 7.8477,1.7948 10.6069,3.3361 l -0.5504,-1.0794 c -1.6429,-3.2204 -5.6997,-5.9088 -10.9096,-7.2302 -2.1073,-0.5344 -7.9239,-1.3435 -9.4917,-1.3631 z"
           id="path5883"
           inkscape:connector-curvature="0" />
        <g
           transform="matrix(1.2201175,0,0,1.2201175,-203.1343,1253.1735)"
           id="g5885"
           style="stroke:#ffffff;stroke-width:2.45877957;stroke-linecap:butt;stroke-linejoin:round;stroke-miterlimit:4;stroke-dasharray:none;stroke-opacity:1">
          <path
             style="fill:none;fill-rule:evenodd;stroke:#ffffff;stroke-width:2.45877957;stroke-linecap:butt;stroke-linejoin:round;stroke-miterlimit:4;stroke-dasharray:none;stroke-opacity:1"
             d="m -900.66581,3742.2655 c -26.34354,-6.4372 -61.79811,10.3189 -83.81908,30.3249 m -17.38241,21.6789 c -5.6839,11.701 -3.873,22.0595 10.0887,26.9567"
             id="path5887"
             inkscape:connector-curvature="0"
             sodipodi:nodetypes="cccc" />
          <path
             style="color:#000000;clip-rule:nonzero;display:inline;overflow:visible;visibility:visible;opacity:1;isolation:auto;mix-blend-mode:normal;color-interpolation:sRGB;color-interpolation-filters:linearRGB;solid-color:#000000;solid-opacity:1;fill:none;fill-opacity:1;fill-rule:evenodd;stroke:#ffffff;stroke-width:2.45877957;stroke-linecap:butt;stroke-linejoin:round;stroke-miterlimit:4;stroke-dasharray:none;stroke-dashoffset:0;stroke-opacity:1;color-rendering:auto;image-rendering:auto;shape-rendering:auto;text-rendering:auto;enable-background:accumulate"
             d="m -1026.0499,3745.6535 c -6.6531,56.0922 141.96278,13.9824 139.76568,-28.144"
             id="path5889"
             inkscape:connector-curvature="0"
             sodipodi:nodetypes="cc" />
          <path
             sodipodi:nodetypes="scc"
             inkscape:connector-curvature="0"
             id="path5891"
             d="m -863.25268,3836.9317 c -10.9798,-29.7112 -141.11762,28.7816 -162.06082,3.1061 -7.0242,-8.6112 -7.77,-22.6343 -4.5334,-38.6965"
             style="fill:none;fill-opacity:0.43404254;fill-rule:evenodd;stroke:#ffffff;stroke-width:2.45877957;stroke-linecap:butt;stroke-linejoin:round;stroke-miterlimit:4;stroke-dasharray:none;stroke-opacity:1" />
          <path
             style="fill:none;fill-rule:evenodd;stroke:#ffffff;stroke-width:2.45877957;stroke-linecap:butt;stroke-linejoin:round;stroke-miterlimit:4;stroke-dasharray:none;stroke-opacity:1"
             d="m -881.8078,3828.3732 c -18.33447,31.0128 -38.20099,43.9922 -79.41775,54.2243 7.84438,3.9136 72.96054,5.0696 98.1271,-45.7582 49.85346,-100.6869 -124.03179,5.6345 -160.88325,-16.6668 -9.9219,-7.922 -7.8202,-20.4505 1.3345,-34.2099 m 13.0596,-15.8691 c 34.47547,-35.6038 101.50167,-70.9625 122.85496,-52.95 90.32827,74.544 -180.25896,117.9793 -142.61126,34.837 14.6936,-32.4497 47.11584,-52.5279 83.03094,-54.3753 -38.96904,12.2758 -63.03384,32.0296 -70.14184,69.1751"
             id="path5893"
             inkscape:connector-curvature="0"
             sodipodi:nodetypes="ccsccccscc" />
        </g>
        <g
           style="stroke:#ffffff;stroke-width:2.45877957;stroke-linecap:butt;stroke-linejoin:round;stroke-miterlimit:4;stroke-dasharray:none;stroke-opacity:1"
           id="g5895"
           transform="matrix(1.2201175,0,0,1.2201175,-203.1343,1253.1735)">
          <path
             sodipodi:nodetypes="cccc"
             inkscape:connector-curvature="0"
             id="path5897"
             d="m -900.66581,3742.2655 c -26.34354,-6.4372 -61.79811,10.3189 -83.81908,30.3249 m -17.38241,21.6789 c -5.6839,11.701 -3.873,22.0595 10.0887,26.9567"
             style="fill:none;fill-rule:evenodd;stroke:#ffffff;stroke-width:2.45877957;stroke-linecap:butt;stroke-linejoin:round;stroke-miterlimit:4;stroke-dasharray:none;stroke-opacity:1" />
          <path
             sodipodi:nodetypes="cc"
             inkscape:connector-curvature="0"
             id="path5899"
             d="m -1026.0499,3745.6535 c -6.6531,56.0922 141.96278,13.9824 139.76568,-28.144"
             style="color:#000000;clip-rule:nonzero;display:inline;overflow:visible;visibility:visible;opacity:1;isolation:auto;mix-blend-mode:normal;color-interpolation:sRGB;color-interpolation-filters:linearRGB;solid-color:#000000;solid-opacity:1;fill:none;fill-opacity:1;fill-rule:evenodd;stroke:#ffffff;stroke-width:2.45877957;stroke-linecap:butt;stroke-linejoin:round;stroke-miterlimit:4;stroke-dasharray:none;stroke-dashoffset:0;stroke-opacity:1;color-rendering:auto;image-rendering:auto;shape-rendering:auto;text-rendering:auto;enable-background:accumulate" />
          <path
             style="fill:none;fill-opacity:0.43404254;fill-rule:evenodd;stroke:#ffffff;stroke-width:2.45877957;stroke-linecap:butt;stroke-linejoin:round;stroke-miterlimit:4;stroke-dasharray:none;stroke-opacity:1"
             d="m -863.25268,3836.9317 c -10.9798,-29.7112 -141.11762,28.7816 -162.06082,3.1061 -7.0242,-8.6112 -7.77,-22.6343 -4.5334,-38.6965"
             id="path5901"
             inkscape:connector-curvature="0"
             sodipodi:nodetypes="scc" />
          <path
             sodipodi:nodetypes="ccsccccscc"
             inkscape:connector-curvature="0"
             id="path5903"
             d="m -881.8078,3828.3732 c -18.33447,31.0128 -38.20099,43.9922 -79.41775,54.2243 7.84438,3.9136 72.96054,5.0696 98.1271,-45.7582 49.85346,-100.6869 -124.03179,5.6345 -160.88325,-16.6668 -9.9219,-7.922 -7.8202,-20.4505 1.3345,-34.2099 m 13.0596,-15.8691 c 34.47547,-35.6038 101.50167,-70.9625 122.85496,-52.95 90.32827,74.544 -180.25896,117.9793 -142.61126,34.837 14.6936,-32.4497 47.11584,-52.5279 83.03094,-54.3753 -38.96904,12.2758 -63.03384,32.0296 -70.14184,69.1751"
             style="fill:none;fill-rule:evenodd;stroke:#ffffff;stroke-width:2.45877957;stroke-linecap:butt;stroke-linejoin:round;stroke-miterlimit:4;stroke-dasharray:none;stroke-opacity:1" />
        </g>
      </g>
      <text
         inkscape:export-ydpi="300"
         inkscape:export-xdpi="300"
         sodipodi:linespacing="125%"
         id="text4184"
         y="860.09912"
         x="-29.980532"
         style="font-style:normal;font-variant:normal;font-weight:normal;font-stretch:normal;font-size:47.34088516px;line-height:125%;font-family:Arial;-inkscape-font-specification:Arial;text-align:start;letter-spacing:0px;word-spacing:0px;writing-mode:lr-tb;text-anchor:start;fill:#000000;fill-opacity:1;stroke:none;stroke-width:1px;stroke-linecap:butt;stroke-linejoin:miter;stroke-opacity:1;"
         xml:space="preserve"><tspan
           y="860.09912"
           x="-29.980532"
           id="tspan4186"
           sodipodi:role="line">Geode-solutions</tspan></text>
    </g>
    <path
       style="fill:#26a69a;fill-rule:evenodd;stroke:#000000;stroke-width:1px;stroke-linecap:butt;stroke-linejoin:miter;stroke-opacity:1;fill-opacity:1"
       d="M 641.32504,383.64122 C 518.6089,206.23177 228.50936,124.03202 131.198,112.92034 236.36963,143.032 470.80999,223.85929 566.57374,394.75289 c -22.38702,-13.85941 -59.33539,-22.77507 -82.8325,-18.18274 57.58723,20.33203 126.91037,69.19174 164.65486,120.20815 20.2069,-55.78319 28.23519,-110.55149 16.16245,-163.64471 -5.07281,13.13199 -4.69822,37.37565 -23.23351,50.50763 z"
       id="path4176"
       inkscape:connector-curvature="0"
       sodipodi:nodetypes="ccccccc" />
  </g>
</svg>
