<?xml version="1.0" encoding="UTF-8" standalone="no"?>
<!-- Created with Inkscape (http://www.inkscape.org/) -->

<svg
   xmlns:dc="http://purl.org/dc/elements/1.1/"
   xmlns:cc="http://creativecommons.org/ns#"
   xmlns:rdf="http://www.w3.org/1999/02/22-rdf-syntax-ns#"
   xmlns:svg="http://www.w3.org/2000/svg"
   xmlns="http://www.w3.org/2000/svg"
   xmlns:sodipodi="http://sodipodi.sourceforge.net/DTD/sodipodi-0.dtd"
   xmlns:inkscape="http://www.inkscape.org/namespaces/inkscape"
   width="64.40284mm"
   height="67.120659mm"
   viewBox="0 0 228.19904 237.8291"
   id="svg5209"
   version="1.1"
   inkscape:version="0.91 r13725"
   sodipodi:docname="logo-color.svg">
  <defs
     id="defs5211" />
  <sodipodi:namedview
     id="base"
     pagecolor="#ffffff"
     bordercolor="#666666"
     borderopacity="1.0"
     inkscape:pageopacity="0.0"
     inkscape:pageshadow="2"
     inkscape:zoom="0.98994949"
     inkscape:cx="-43.234104"
     inkscape:cy="317.00171"
     inkscape:document-units="px"
     inkscape:current-layer="layer1"
     showgrid="false"
     fit-margin-top="1"
     fit-margin-left="1"
     fit-margin-right="1"
     fit-margin-bottom="1"
     inkscape:window-width="926"
     inkscape:window-height="1021"
     inkscape:window-x="994"
     inkscape:window-y="27"
     inkscape:window-maximized="0"
     inkscape:showpageshadow="true"
     borderlayer="false" />
  <metadata
     id="metadata5214">
    <rdf:RDF>
      <cc:Work
         rdf:about="">
        <dc:format>image/svg+xml</dc:format>
        <dc:type
           rdf:resource="http://purl.org/dc/dcmitype/StillImage" />
        <dc:title></dc:title>
      </cc:Work>
    </rdf:RDF>
  </metadata>
  <g
     inkscape:label="Calque 1"
     inkscape:groupmode="layer"
     id="layer1"
     transform="translate(-95.258371,-570.74657)">
    <g
       transform="translate(1092.6317,-6204.017)"
       id="g5192">
      <path
         style="color:#000000;clip-rule:nonzero;display:inline;overflow:visible;visibility:visible;opacity:1;isolation:auto;mix-blend-mode:normal;color-interpolation:sRGB;color-interpolation-filters:linearRGB;solid-color:#000000;solid-opacity:1;fill:#4db6ac;fill-opacity:1;fill-rule:evenodd;stroke:none;stroke-width:0.25253814px;stroke-linecap:butt;stroke-linejoin:miter;stroke-miterlimit:4;stroke-dasharray:none;stroke-dashoffset:0;stroke-opacity:1;color-rendering:auto;image-rendering:auto;shape-rendering:auto;text-rendering:auto;enable-background:accumulate"
         d="m -968.7147,6463.9819 -3.7713,-0.9418 2.1641,-2.4597 c 2.0587,-2.3398 9.0335,-8.1538 12.59214,-11.1454 23.7093,-19.9318 53.02166,-35.8958 75.48788,-41.6277 7.1356,-1.8205 10.09487,-2.5656 16.61459,-2.5614 5.45859,0 6.6682,0.8466 8.93941,1.4632 1.32921,0.3608 2.66859,1.0546 3.63117,1.5419 4.9744,1.3367 3.29673,4.9462 3.30234,4.9858 0,3.8059 -2.32627,8.635 -5.63004,13.0098 -1.04892,1.389 -3.28717,3.8741 -4.97389,5.5225 -2.92235,2.8559 -3.64069,3.346 -4.41407,3.1802 -6.7466,-1.4458 -15.00794,-1.3964 -23.16122,-0.023 -14.11721,2.3788 -29.16966,8.739 -43.75691,18.526 -4.91449,3.2972 -8.587,5.8031 -12.27965,8.5847 l -3.33159,3.4048 -6.16551,0.2339 c -7.06005,-0.2633 -10.03185,-0.4628 -15.24745,-1.6943 z"
         id="path5156"
         inkscape:connector-curvature="0"
         sodipodi:nodetypes="ccssscccccscsssccc" />
      <path
         style="color:#000000;clip-rule:nonzero;display:inline;overflow:visible;visibility:visible;opacity:1;isolation:auto;mix-blend-mode:normal;color-interpolation:sRGB;color-interpolation-filters:linearRGB;solid-color:#000000;solid-opacity:1;fill:#4db6ac;fill-opacity:1;fill-rule:evenodd;stroke:none;stroke-width:0.25253814px;stroke-linecap:butt;stroke-linejoin:miter;stroke-miterlimit:4;stroke-dasharray:none;stroke-dashoffset:0;stroke-opacity:1;color-rendering:auto;image-rendering:auto;shape-rendering:auto;text-rendering:auto;enable-background:accumulate"
         d="m -981.697,6458.43 c -1.9063,-1.3821 -4.0227,-3.436 -5.0763,-5.5802 -1.5303,-3.1145 -2.7705,-6.1015 -2.8018,-10.001 l 0.063,-3.8255 2.7291,-4.8121 c 10.4049,-16.4834 23.3221,-27.3216 42.13488,-35.4141 6.79419,-2.9225 16.77045,-5.7583 24.20019,-6.897 13.48543,-2.9854 7.31942,-0.1322 3.41828,1.2943 -16.1088,5.8903 -31.02596,14.1333 -40.57311,23.5821 -10.37094,10.264 -16.42554,21.8961 -20.86514,36.6307 -1.405,4.6629 -0.6818,6.7022 -1.8897,5.8264 z"
         id="path5158"
         inkscape:connector-curvature="0"
         sodipodi:nodetypes="cccccccssscc" />
      <path
         style="color:#000000;clip-rule:nonzero;display:inline;overflow:visible;visibility:visible;opacity:1;isolation:auto;mix-blend-mode:normal;color-interpolation:sRGB;color-interpolation-filters:linearRGB;solid-color:#000000;solid-opacity:1;fill:#b2dfdb;fill-opacity:1;fill-rule:evenodd;stroke:none;stroke-width:0.25253814px;stroke-linecap:butt;stroke-linejoin:miter;stroke-miterlimit:4;stroke-dasharray:none;stroke-dashoffset:0;stroke-opacity:1;color-rendering:auto;image-rendering:auto;shape-rendering:auto;text-rendering:auto;enable-background:accumulate"
         d="m -943.61825,6489.4343 c -9.11044,-0.5454 -14.40701,-1.1737 -20.18155,-2.394 -8.6512,-1.8282 -15.2692,-4.4126 -20.8559,-8.1444 -2.3634,-1.5787 -6.1309,-5.3283 -7.533,-7.4973 -4.6428,-7.1819 -4.3658,-16.5735 0.8084,-27.4003 l 1.3275,-2.778 0.053,2.0983 c 0.1322,5.1886 1.8895,9.594 5.2534,13.1698 4.659,4.9526 11.0982,7.7731 21.1771,9.2763 3.74294,0.5582 17.03449,0.6394 21.46578,0.1312 11.68622,-1.3404 22.14231,-3.5547 33.12758,-7.0156 19.35503,-6.0979 36.7837,-15.224 47.3129,-24.7744 7.77669,-7.0538 11.81572,-13.8181 12.33911,-20.6648 l 0.15445,-2.0203 4.20417,4.1669 c 4.68126,4.6398 7.49106,8.2146 9.54788,12.1477 2.38967,4.5696 3.29427,8.0255 3.29427,12.5852 0,4.99 -1.28103,8.953 -4.41835,13.6684 -11.66997,17.5403 -46.98025,31.7509 -86.87419,34.9625 -4.62347,0.3722 -17.07894,0.6699 -20.20305,0.4828 z"
         id="path5160"
         inkscape:connector-curvature="0" />
      <path
         style="color:#000000;clip-rule:nonzero;display:inline;overflow:visible;visibility:visible;opacity:1;isolation:auto;mix-blend-mode:normal;color-interpolation:sRGB;color-interpolation-filters:linearRGB;solid-color:#000000;solid-opacity:1;fill:#4db6ac;fill-opacity:1;fill-rule:evenodd;stroke:none;stroke-width:0.25253814px;stroke-linecap:butt;stroke-linejoin:miter;stroke-miterlimit:4;stroke-dasharray:none;stroke-dashoffset:0;stroke-opacity:1;color-rendering:auto;image-rendering:auto;shape-rendering:auto;text-rendering:auto;enable-background:accumulate"
         d="m -979.3046,6515.2046 c -2.5424,-0.4448 -5.5367,-1.4236 -7.0272,-2.297 -2.6373,-1.5456 -5.3978,-5.5625 -6.3045,-9.174 -0.5566,-2.2171 -0.3732,-7.186 0.3668,-9.9388 1.0266,-3.819 3.5821,-9.3641 6.0355,-13.0963 l 0.61,-0.928 1.5574,1.0142 c 3.5721,2.3261 10.0834,5.0025 15.8525,6.516 l 2.1731,0.5701 -0.7194,1.7123 c -1.796,4.2747 -2.3869,9.9234 -1.3853,13.2433 1.3646,4.5231 4.1768,7.7183 9.00324,10.2292 1.1723,0.6099 2.01962,1.1421 1.883,1.1825 -0.1366,0.04 -1.953,0.3192 -4.03654,0.6193 -4.9482,0.7127 -14.8301,0.9032 -18.0086,0.3472 z"
         id="path5162"
         inkscape:connector-curvature="0" />
      <path
         style="color:#000000;clip-rule:nonzero;display:inline;overflow:visible;visibility:visible;opacity:1;isolation:auto;mix-blend-mode:normal;color-interpolation:sRGB;color-interpolation-filters:linearRGB;solid-color:#000000;solid-opacity:1;fill:#b2dfdb;fill-opacity:1;fill-rule:evenodd;stroke:none;stroke-width:0.25253814px;stroke-linecap:butt;stroke-linejoin:miter;stroke-miterlimit:4;stroke-dasharray:none;stroke-dashoffset:0;stroke-opacity:1;color-rendering:auto;image-rendering:auto;shape-rendering:auto;text-rendering:auto;enable-background:accumulate"
         d="m -973.1426,6538.8191 c -6.2672,-0.7171 -11.1879,-2.5352 -13.8411,-5.1138 -3.1119,-3.0244 -5.5874,-8.3799 -6.6212,-14.3244 -0.5355,-3.0792 -0.7699,-8.6359 -0.5273,-12.4996 l 0.1902,-3.0294 0.4316,1.3951 c 1.0482,3.3877 4.0138,7.3022 6.6588,8.7894 3.2016,1.8001 6.7757,2.563 12.8561,2.7441 8.6527,0.2578 17.46007,-1.0006 32.19045,-4.5992 9.55509,-2.3343 16.66522,-4.3557 38.2141,-10.8644 36.13696,-10.9149 48.60285,-13.8918 62.03173,-14.8136 13.27504,-0.9112 20.60832,2.2898 22.98591,10.0337 0.67399,2.1952 0.60938,7.6682 -0.13183,11.1674 -1.09991,5.1926 -3.52189,12.0283 -6.58514,18.5855 l -1.04508,2.2371 -0.77193,-1.1654 c -2.07608,-3.1343 -6.47162,-5.2928 -12.71778,-6.2452 -3.2058,-0.4888 -13.29739,-0.4228 -18.30902,0.1199 -11.48655,1.2436 -20.0286,2.7685 -47.09836,8.408 -27.74326,5.7797 -37.67429,7.5524 -49.37121,8.8128 -4.3245,0.4659 -15.69084,0.6879 -18.53894,0.362 z"
         id="path5164"
         inkscape:connector-curvature="0" />
      <path
         style="color:#000000;clip-rule:nonzero;display:inline;overflow:visible;visibility:visible;opacity:1;isolation:auto;mix-blend-mode:normal;color-interpolation:sRGB;color-interpolation-filters:linearRGB;solid-color:#000000;solid-opacity:1;fill:#4db6ac;fill-opacity:1;fill-rule:evenodd;stroke:none;stroke-width:0.25253814px;stroke-linecap:butt;stroke-linejoin:miter;stroke-miterlimit:4;stroke-dasharray:none;stroke-dashoffset:0;stroke-opacity:1;color-rendering:auto;image-rendering:auto;shape-rendering:auto;text-rendering:auto;enable-background:accumulate"
         d="m -914.8289,6576.5521 c -2.5785,-0.1561 -6.23718,-0.6056 -6.60516,-0.8115 -0.22508,-0.1259 0.30638,-0.3625 1.48587,-0.6614 6.78953,-1.7206 17.13461,-5.049 23.55458,-7.5783 4.2946,-1.692 14.11626,-6.5982 17.56777,-8.7756 13.09533,-8.2613 23.06631,-18.6901 32.44469,-33.9344 0.93331,-1.5171 1.72471,-2.7914 1.75866,-2.8317 0.17922,-0.213 6.12423,0.5811 8.09805,1.0817 4.27003,1.083 7.59595,3.2872 8.94243,5.9266 l 0.54606,1.0703 -1.43255,2.5634 c -12.8671,23.024 -35.78241,37.8339 -66.06033,42.6939 -5.66739,0.9097 -15.73639,1.5332 -20.30007,1.257 z"
         id="path5166"
         inkscape:connector-curvature="0" />
      <path
         inkscape:connector-curvature="0"
         style="color:#000000;clip-rule:nonzero;display:inline;overflow:visible;visibility:visible;opacity:1;isolation:auto;mix-blend-mode:normal;color-interpolation:sRGB;color-interpolation-filters:linearRGB;solid-color:#000000;solid-opacity:1;fill:#26a69a;fill-opacity:1;fill-rule:evenodd;stroke:none;stroke-width:2.3039999;stroke-linecap:butt;stroke-linejoin:miter;stroke-miterlimit:10;stroke-dasharray:none;stroke-dashoffset:0;stroke-opacity:1;color-rendering:auto;image-rendering:auto;shape-rendering:auto;text-rendering:auto;enable-background:accumulate"
         d="m -854.86198,6407.3807 c -1.33134,5.8278 -5.23804,11.6361 -11.87305,17.6543 -3.35422,3.0424 -7.41401,6.04 -12.00781,8.9121 4.98258,-0.2175 9.77068,0.1019 13.9707,1.002 0.77338,0.1658 1.49171,-0.3238 4.41406,-3.1797 1.68672,-1.6484 3.92569,-4.1344 4.97461,-5.5234 3.30377,-4.3748 5.62891,-9.2039 5.62891,-13.0098 -0.006,-0.04 1.67166,-3.6477 -3.30274,-4.9844 -0.51306,-0.2597 -1.13611,-0.5757 -1.80468,-0.8711 z m -78.75196,47.3789 c -4.39953,0.8414 -8.87932,1.5276 -13.56054,2.0645 -3.7928,0.435 -14.03792,0.4362 -19.26952,0.078 -1.6472,1.4661 -3.1287,2.8273 -3.877,3.6778 l -2.164,2.4609 3.7695,0.9414 c 5.2156,1.2315 8.188,1.4301 15.24805,1.6934 l 6.16601,-0.2344 3.33204,-3.4043 c 3.1544,-2.3762 6.4437,-4.6385 10.35546,-7.2774 z"
         id="path5168" />
      <path
         inkscape:connector-curvature="0"
         style="color:#000000;clip-rule:nonzero;display:inline;overflow:visible;visibility:visible;opacity:1;isolation:auto;mix-blend-mode:normal;color-interpolation:sRGB;color-interpolation-filters:linearRGB;solid-color:#000000;solid-opacity:1;fill:#26a69a;fill-opacity:1;fill-rule:evenodd;stroke:none;stroke-width:2.3039999;stroke-linecap:butt;stroke-linejoin:miter;stroke-miterlimit:10;stroke-dasharray:none;stroke-dashoffset:0;stroke-opacity:1;color-rendering:auto;image-rendering:auto;shape-rendering:auto;text-rendering:auto;enable-background:accumulate"
         d="m -992.862,6502.2382 c 0.053,0.5641 0.124,1.0876 0.2266,1.496 0.9067,3.6115 3.6654,7.6283 6.3027,9.1739 1.4905,0.8734 4.4849,1.852 7.0273,2.2969 3.1785,0.556 13.0615,0.365 18.0098,-0.3477 2.08344,-0.3001 3.89854,-0.5791 4.03514,-0.6191 0.13665,-0.04 -0.7105,-0.5718 -1.8828,-1.1817 -2.59244,-1.3487 -4.58554,-2.9067 -6.10354,-4.75 -3.8414,0.4264 -7.3154,0.5769 -10.748,0.4746 -6.0804,-0.1811 -9.6558,-0.944 -12.8574,-2.7441 -1.354,-0.7613 -2.788,-2.1616 -4.0098,-3.7988 z"
         id="path5170" />
      <path
         inkscape:connector-curvature="0"
         style="color:#000000;clip-rule:nonzero;display:inline;overflow:visible;visibility:visible;opacity:1;isolation:auto;mix-blend-mode:normal;color-interpolation:sRGB;color-interpolation-filters:linearRGB;solid-color:#000000;solid-opacity:1;fill:#26a69a;fill-opacity:1;fill-rule:evenodd;stroke:none;stroke-width:2.3039999;stroke-linecap:butt;stroke-linejoin:miter;stroke-miterlimit:10;stroke-dasharray:none;stroke-dashoffset:0;stroke-opacity:1;color-rendering:auto;image-rendering:auto;shape-rendering:auto;text-rendering:auto;enable-background:accumulate"
         d="m -988.7038,6448.2421 c 0.5024,1.5866 1.1801,3.0818 1.9297,4.6074 1.0536,2.1442 3.1699,4.198 5.0762,5.5801 l 1.3398,0.8046 c 1.1417,0.8278 0.5804,-0.9789 1.6992,-5.1132 -4.1149,-1.433 -7.3639,-3.3493 -10.0449,-5.8789 z"
         id="path5172" />
      <path
         style="color:#000000;clip-rule:nonzero;display:inline;overflow:visible;visibility:visible;opacity:1;isolation:auto;mix-blend-mode:normal;color-interpolation:sRGB;color-interpolation-filters:linearRGB;solid-color:#000000;solid-opacity:1;fill:#26a69a;fill-opacity:1;fill-rule:evenodd;stroke:none;stroke-width:2.3039999;stroke-linecap:butt;stroke-linejoin:miter;stroke-miterlimit:10;stroke-dasharray:none;stroke-dashoffset:0;stroke-opacity:1;color-rendering:auto;image-rendering:auto;shape-rendering:auto;text-rendering:auto;enable-background:accumulate"
         d="m -844.30339,6521.9237 c -0.18357,0 -0.29596,0.01 -0.31836,0.035 -0.034,0.04 -0.82645,1.3149 -1.75976,2.832 -0.43533,0.7076 -0.87242,1.3949 -1.31055,2.082 4.67276,-0.138 9.75239,-0.078 11.86719,0.2442 3.52317,0.5372 6.43189,1.471 8.69336,2.7343 l -0.45118,-0.8847 c -1.34648,-2.6394 -4.67137,-4.8428 -8.9414,-5.9258 -1.7271,-0.438 -6.49434,-1.1011 -7.7793,-1.1172 z"
         id="path5174"
         inkscape:connector-curvature="0" />
      <g
         transform="translate(36.796228,2692.9862)"
         id="g5176"
         style="stroke:#ffffff;stroke-opacity:1">
        <path
           style="fill:none;fill-rule:evenodd;stroke:#ffffff;stroke-width:1.5;stroke-linecap:butt;stroke-linejoin:miter;stroke-miterlimit:4;stroke-dasharray:none;stroke-opacity:1"
           d="m -900.66581,3742.2655 c -26.34354,-6.4372 -61.79811,10.3189 -83.81908,30.3249 m -17.38241,21.6789 c -5.6839,11.701 -3.873,22.0595 10.0887,26.9567"
           id="path5178"
           inkscape:connector-curvature="0"
           sodipodi:nodetypes="cccc" />
        <path
           style="color:#000000;clip-rule:nonzero;display:inline;overflow:visible;visibility:visible;opacity:1;isolation:auto;mix-blend-mode:normal;color-interpolation:sRGB;color-interpolation-filters:linearRGB;solid-color:#000000;solid-opacity:1;fill:none;fill-opacity:1;fill-rule:evenodd;stroke:#ffffff;stroke-width:1.5;stroke-linecap:butt;stroke-linejoin:miter;stroke-miterlimit:4;stroke-dasharray:none;stroke-dashoffset:0;stroke-opacity:1;color-rendering:auto;image-rendering:auto;shape-rendering:auto;text-rendering:auto;enable-background:accumulate"
           d="m -1026.0499,3745.6535 c -6.6531,56.0922 141.96278,13.9824 139.76568,-28.144"
           id="path5180"
           inkscape:connector-curvature="0"
           sodipodi:nodetypes="cc" />
        <path
           sodipodi:nodetypes="scc"
           inkscape:connector-curvature="0"
           id="path5182"
           d="m -863.25268,3836.9317 c -10.9798,-29.7112 -141.11762,28.7816 -162.06082,3.1061 -7.0242,-8.6112 -7.77,-22.6343 -4.5334,-38.6965"
           style="fill:none;fill-opacity:0.43404254;fill-rule:evenodd;stroke:#ffffff;stroke-width:1.5;stroke-linecap:butt;stroke-linejoin:miter;stroke-miterlimit:4;stroke-dasharray:none;stroke-opacity:1" />
        <path
           style="fill:none;fill-rule:evenodd;stroke:#ffffff;stroke-width:1.5;stroke-linecap:butt;stroke-linejoin:miter;stroke-miterlimit:4;stroke-dasharray:none;stroke-opacity:1"
           d="m -881.8078,3828.3732 c -18.33447,31.0128 -38.20099,43.9922 -79.41775,54.2243 7.84438,3.9136 72.96054,5.0696 98.1271,-45.7582 49.85346,-100.6869 -124.03179,5.6345 -160.88325,-16.6668 -9.9219,-7.922 -7.8202,-20.4505 1.3345,-34.2099 m 13.0596,-15.8691 c 34.47547,-35.6038 101.50167,-70.9625 122.85496,-52.95 90.32827,74.544 -180.25896,117.9793 -142.61126,34.837 14.6936,-32.4497 47.11584,-52.5279 83.03094,-54.3753 -38.96904,12.2758 -63.03384,32.0296 -70.14184,69.1751"
           id="path5184"
           inkscape:connector-curvature="0"
           sodipodi:nodetypes="ccsccccscc" />
      </g>
    </g>
    <g
       transform="translate(1563.7553,-5188.8965)"
       id="g5905">
      <path
         sodipodi:nodetypes="ccssscccccscsssccc"
         inkscape:connector-curvature="0"
         id="path5865"
         d="m -1429.9757,5854.2313 -4.6014,-1.1491 2.6404,-3.0011 c 2.5119,-2.8548 11.0219,-9.9486 15.3639,-13.5987 28.9281,-24.3191 64.6926,-43.7971 92.104,-50.7907 8.7063,-2.2212 12.3169,-3.1303 20.2718,-3.1252 6.6601,0 8.136,1.033 10.9071,1.7853 1.6218,0.4402 3.256,1.2867 4.4305,1.8813 6.0693,1.6309 4.0224,6.0349 4.0292,6.0833 0,4.6436 -2.8383,10.5357 -6.8693,15.8734 -1.2798,1.6948 -4.0107,4.7269 -6.0687,6.7381 -3.5656,3.4846 -4.4421,4.0826 -5.3857,3.8803 -8.2317,-1.7641 -18.3115,-1.7038 -28.2594,-0.028 -17.2247,2.9024 -35.5904,10.6626 -53.3886,22.6039 -5.9963,4.023 -10.4772,7.0805 -14.9826,10.4743 l -4.065,4.1543 -7.5226,0.2854 c -8.614,-0.3213 -12.24,-0.5647 -18.6036,-2.0673 z"
         style="color:#000000;clip-rule:nonzero;display:inline;overflow:visible;visibility:visible;opacity:1;isolation:auto;mix-blend-mode:normal;color-interpolation:sRGB;color-interpolation-filters:linearRGB;solid-color:#000000;solid-opacity:1;fill:#4db6ac;fill-opacity:1;fill-rule:evenodd;stroke:none;stroke-width:0.25253814px;stroke-linecap:butt;stroke-linejoin:miter;stroke-miterlimit:4;stroke-dasharray:none;stroke-dashoffset:0;stroke-opacity:1;color-rendering:auto;image-rendering:auto;shape-rendering:auto;text-rendering:auto;enable-background:accumulate" />
      <path
         sodipodi:nodetypes="cccccccssscc"
         inkscape:connector-curvature="0"
         id="path5867"
         d="m -1445.8156,5847.4574 c -2.326,-1.6864 -4.9082,-4.1924 -6.1937,-6.8085 -1.8672,-3.8001 -3.3804,-7.4446 -3.4186,-12.2024 l 0.077,-4.6676 3.3298,-5.8713 c 12.6952,-20.1117 28.4557,-33.3356 51.4095,-43.2094 8.2897,-3.5658 20.4619,-7.0258 29.5271,-8.4151 16.4538,-3.6426 8.9305,-0.1613 4.1707,1.5792 -19.6547,7.1868 -37.8553,17.2443 -49.504,28.7729 -12.6537,12.5233 -20.041,26.7158 -25.4579,44.6938 -1.7142,5.6892 -0.8318,8.1774 -2.3056,7.1089 z"
         style="color:#000000;clip-rule:nonzero;display:inline;overflow:visible;visibility:visible;opacity:1;isolation:auto;mix-blend-mode:normal;color-interpolation:sRGB;color-interpolation-filters:linearRGB;solid-color:#000000;solid-opacity:1;fill:#4db6ac;fill-opacity:1;fill-rule:evenodd;stroke:none;stroke-width:0.25253814px;stroke-linecap:butt;stroke-linejoin:miter;stroke-miterlimit:4;stroke-dasharray:none;stroke-dashoffset:0;stroke-opacity:1;color-rendering:auto;image-rendering:auto;shape-rendering:auto;text-rendering:auto;enable-background:accumulate" />
      <path
         inkscape:connector-curvature="0"
         id="path5869"
         d="m -1399.3552,5885.2863 c -11.1158,-0.6655 -17.5782,-1.4321 -24.6238,-2.921 -10.5554,-2.2306 -18.6302,-5.3839 -25.4466,-9.9371 -2.8836,-1.9262 -7.4804,-6.5012 -9.1912,-9.1476 -5.6647,-8.7628 -5.3267,-20.2216 0.9864,-33.4316 l 1.6197,-3.3895 0.065,2.5602 c 0.1613,6.3307 2.3054,11.7058 6.4097,16.0687 5.6846,6.0427 13.5411,9.4841 25.8386,11.3182 4.5668,0.681 20.784,0.7801 26.1907,0.16 14.2585,-1.6354 27.0162,-4.3371 40.4195,-8.5598 23.6154,-7.4402 44.8805,-18.5751 57.7273,-30.2277 9.4885,-8.6065 14.4166,-16.8597 15.0552,-25.2135 l 0.1884,-2.465 5.1296,5.0841 c 5.7117,5.6611 9.14,10.0228 11.6496,14.8217 2.9156,5.5754 4.0193,9.792 4.0193,15.3554 0,6.0884 -1.563,10.9237 -5.3909,16.677 -14.2387,21.4013 -57.3214,38.7399 -105.9967,42.6584 -5.6412,0.4541 -20.8383,0.8173 -24.6501,0.5891 z"
         style="color:#000000;clip-rule:nonzero;display:inline;overflow:visible;visibility:visible;opacity:1;isolation:auto;mix-blend-mode:normal;color-interpolation:sRGB;color-interpolation-filters:linearRGB;solid-color:#000000;solid-opacity:1;fill:#b2dfdb;fill-opacity:1;fill-rule:evenodd;stroke:none;stroke-width:0.25253814px;stroke-linecap:butt;stroke-linejoin:miter;stroke-miterlimit:4;stroke-dasharray:none;stroke-dashoffset:0;stroke-opacity:1;color-rendering:auto;image-rendering:auto;shape-rendering:auto;text-rendering:auto;enable-background:accumulate" />
      <path
         inkscape:connector-curvature="0"
         id="path5871"
         d="m -1442.8966,5916.7291 c -3.1021,-0.5428 -6.7555,-1.737 -8.574,-2.8027 -3.2179,-1.8858 -6.586,-6.7869 -7.6923,-11.1933 -0.6791,-2.7051 -0.4553,-8.7678 0.4476,-12.1265 1.2525,-4.6596 4.3705,-11.4253 7.364,-15.979 l 0.7443,-1.1323 1.9002,1.2374 c 4.3583,2.8381 12.3029,6.1037 19.3419,7.9503 l 2.6514,0.6956 -0.8777,2.0892 c -2.1914,5.2156 -2.9123,12.1077 -1.6903,16.1584 1.665,5.5187 5.0962,9.4172 10.985,12.4808 1.4303,0.7442 2.4642,1.3935 2.2975,1.4428 -0.1667,0.049 -2.3829,0.3895 -4.925,0.7556 -6.0374,0.8696 -18.0945,1.102 -21.9726,0.4237 z"
         style="color:#000000;clip-rule:nonzero;display:inline;overflow:visible;visibility:visible;opacity:1;isolation:auto;mix-blend-mode:normal;color-interpolation:sRGB;color-interpolation-filters:linearRGB;solid-color:#000000;solid-opacity:1;fill:#4db6ac;fill-opacity:1;fill-rule:evenodd;stroke:none;stroke-width:0.25253814px;stroke-linecap:butt;stroke-linejoin:miter;stroke-miterlimit:4;stroke-dasharray:none;stroke-dashoffset:0;stroke-opacity:1;color-rendering:auto;image-rendering:auto;shape-rendering:auto;text-rendering:auto;enable-background:accumulate" />
      <path
         inkscape:connector-curvature="0"
         id="path5873"
         d="m -1435.3783,5945.5415 c -7.6467,-0.8749 -13.6505,-3.0932 -16.8877,-6.2394 -3.7969,-3.6901 -6.8173,-10.2245 -8.0787,-17.4775 -0.6534,-3.757 -0.9394,-10.5368 -0.6434,-15.251 l 0.2321,-3.6962 0.5266,1.7022 c 1.2789,4.1334 4.8973,8.9096 8.1245,10.7241 3.9064,2.1963 8.2672,3.1272 15.686,3.3481 10.5573,0.3146 21.3033,-1.2208 39.2761,-5.6115 11.6583,-2.8481 20.3335,-5.3145 46.6256,-13.2559 44.0914,-13.3174 59.3012,-16.9496 75.686,-18.0743 16.1972,-1.1118 25.1446,2.7938 28.0456,12.2423 0.8223,2.6784 0.7435,9.3561 -0.1609,13.6255 -1.342,6.3356 -4.2971,14.676 -8.0346,22.6765 l -1.2752,2.7295 -0.9418,-1.4219 c -2.5331,-3.8242 -7.8961,-6.4578 -15.5172,-7.6199 -3.9114,-0.5963 -16.2244,-0.5158 -22.3391,0.1463 -14.015,1.5174 -24.4373,3.3779 -57.4656,10.2588 -33.85,7.0519 -45.967,9.2148 -60.2386,10.7526 -5.2764,0.5685 -19.1447,0.8394 -22.6197,0.4417 z"
         style="color:#000000;clip-rule:nonzero;display:inline;overflow:visible;visibility:visible;opacity:1;isolation:auto;mix-blend-mode:normal;color-interpolation:sRGB;color-interpolation-filters:linearRGB;solid-color:#000000;solid-opacity:1;fill:#b2dfdb;fill-opacity:1;fill-rule:evenodd;stroke:none;stroke-width:0.25253814px;stroke-linecap:butt;stroke-linejoin:miter;stroke-miterlimit:4;stroke-dasharray:none;stroke-dashoffset:0;stroke-opacity:1;color-rendering:auto;image-rendering:auto;shape-rendering:auto;text-rendering:auto;enable-background:accumulate" />
      <path
         inkscape:connector-curvature="0"
         id="path5875"
         d="m -1364.2288,5991.5802 c -3.146,-0.1904 -7.6101,-0.7389 -8.059,-0.9901 -0.2747,-0.1536 0.3738,-0.4423 1.8129,-0.807 8.284,-2.0993 20.9062,-6.1604 28.7393,-9.2464 5.24,-2.0645 17.2235,-8.0506 21.4348,-10.7073 15.9778,-10.0797 28.1436,-22.8041 39.5863,-41.4039 1.1388,-1.8511 2.1044,-3.4059 2.1458,-3.455 0.2187,-0.2599 7.4723,0.709 9.8806,1.3198 5.2099,1.3213 9.2679,4.0107 10.9108,7.2311 l 0.6662,1.3059 -1.7478,3.1276 c -15.6994,28.092 -43.6588,46.1619 -80.6014,52.0916 -6.9149,1.11 -19.2002,1.8707 -24.7685,1.5337 z"
         style="color:#000000;clip-rule:nonzero;display:inline;overflow:visible;visibility:visible;opacity:1;isolation:auto;mix-blend-mode:normal;color-interpolation:sRGB;color-interpolation-filters:linearRGB;solid-color:#000000;solid-opacity:1;fill:#4db6ac;fill-opacity:1;fill-rule:evenodd;stroke:none;stroke-width:0.25253814px;stroke-linecap:butt;stroke-linejoin:miter;stroke-miterlimit:4;stroke-dasharray:none;stroke-dashoffset:0;stroke-opacity:1;color-rendering:auto;image-rendering:auto;shape-rendering:auto;text-rendering:auto;enable-background:accumulate" />
      <path
         id="path5877"
         d="m -1291.0621,5785.1712 c -1.6244,7.1106 -6.391,14.1974 -14.4865,21.5403 -4.0925,3.7121 -9.046,7.3696 -14.6509,10.8739 6.0793,-0.2654 11.9213,0.1243 17.0459,1.2225 0.9436,0.2023 1.82,-0.3951 5.3856,-3.8796 2.058,-2.0112 4.7898,-5.0444 6.0696,-6.7392 4.031,-5.3378 6.868,-11.2298 6.868,-15.8735 -0.01,-0.049 2.0396,-4.4506 -4.0298,-6.0815 -0.626,-0.3169 -1.3861,-0.7025 -2.2019,-1.0629 z m -96.0866,57.8079 c -5.368,1.0266 -10.8338,1.8638 -16.5455,2.5189 -4.6276,0.5307 -17.1278,0.5322 -23.511,0.095 -2.0098,1.7888 -3.8174,3.4496 -4.7304,4.4873 l -2.6403,3.0026 4.5992,1.1486 c 6.3637,1.5026 9.9903,1.7449 18.6044,2.0662 l 7.5232,-0.286 4.0655,-4.1537 c 3.8487,-2.8992 7.8621,-5.6595 12.6349,-8.8793 z"
         style="color:#000000;clip-rule:nonzero;display:inline;overflow:visible;visibility:visible;opacity:1;isolation:auto;mix-blend-mode:normal;color-interpolation:sRGB;color-interpolation-filters:linearRGB;solid-color:#000000;solid-opacity:1;fill:#26a69a;fill-opacity:1;fill-rule:evenodd;stroke:none;stroke-width:2.3039999;stroke-linecap:butt;stroke-linejoin:miter;stroke-miterlimit:10;stroke-dasharray:none;stroke-dashoffset:0;stroke-opacity:1;color-rendering:auto;image-rendering:auto;shape-rendering:auto;text-rendering:auto;enable-background:accumulate"
         inkscape:connector-curvature="0" />
      <path
         id="path5879"
         d="m -1459.4383,5900.9085 c 0.065,0.6883 0.1513,1.327 0.2765,1.8253 1.1063,4.4065 4.4722,9.3074 7.6901,11.1933 1.8185,1.0656 5.4721,2.2596 8.5741,2.8024 3.8781,0.6784 15.9366,0.4454 21.9741,-0.4242 2.542,-0.3662 4.7566,-0.7066 4.9233,-0.7554 0.1667,-0.049 -0.8669,-0.6976 -2.2973,-1.4418 -3.163,-1.6456 -5.5948,-3.5465 -7.447,-5.7955 -4.6869,0.5202 -8.9256,0.7038 -13.1138,0.579 -7.4188,-0.2209 -11.7812,-1.1518 -15.6875,-3.3481 -1.6521,-0.9289 -3.4017,-2.6374 -4.8925,-4.635 z"
         style="color:#000000;clip-rule:nonzero;display:inline;overflow:visible;visibility:visible;opacity:1;isolation:auto;mix-blend-mode:normal;color-interpolation:sRGB;color-interpolation-filters:linearRGB;solid-color:#000000;solid-opacity:1;fill:#26a69a;fill-opacity:1;fill-rule:evenodd;stroke:none;stroke-width:2.3039999;stroke-linecap:butt;stroke-linejoin:miter;stroke-miterlimit:10;stroke-dasharray:none;stroke-dashoffset:0;stroke-opacity:1;color-rendering:auto;image-rendering:auto;shape-rendering:auto;text-rendering:auto;enable-background:accumulate"
         inkscape:connector-curvature="0" />
      <path
         id="path5881"
         d="m -1454.3648,5835.0269 c 0.613,1.9359 1.4399,3.7602 2.3545,5.6216 1.2855,2.6162 3.8676,5.1221 6.1936,6.8084 l 1.6347,0.9817 c 1.393,1.01 0.7081,-1.1944 2.0732,-6.2387 -5.0207,-1.7484 -8.9848,-4.0866 -12.256,-7.173 z"
         style="color:#000000;clip-rule:nonzero;display:inline;overflow:visible;visibility:visible;opacity:1;isolation:auto;mix-blend-mode:normal;color-interpolation:sRGB;color-interpolation-filters:linearRGB;solid-color:#000000;solid-opacity:1;fill:#26a69a;fill-opacity:1;fill-rule:evenodd;stroke:none;stroke-width:2.3039999;stroke-linecap:butt;stroke-linejoin:miter;stroke-miterlimit:10;stroke-dasharray:none;stroke-dashoffset:0;stroke-opacity:1;color-rendering:auto;image-rendering:auto;shape-rendering:auto;text-rendering:auto;enable-background:accumulate"
         inkscape:connector-curvature="0" />
      <path
         inkscape:connector-curvature="0"
         id="path5883"
         d="m -1278.1794,5924.9271 c -0.2239,0 -0.3611,0.012 -0.3884,0.043 -0.042,0.049 -1.0084,1.6044 -2.1471,3.4554 -0.5312,0.8634 -1.0645,1.702 -1.599,2.5403 5.7013,-0.1684 11.899,-0.095 14.4793,0.298 4.2987,0.6554 7.8477,1.7948 10.6069,3.3361 l -0.5504,-1.0794 c -1.6429,-3.2204 -5.6997,-5.9088 -10.9096,-7.2302 -2.1073,-0.5344 -7.9239,-1.3435 -9.4917,-1.3631 z"
         style="color:#000000;clip-rule:nonzero;display:inline;overflow:visible;visibility:visible;opacity:1;isolation:auto;mix-blend-mode:normal;color-interpolation:sRGB;color-interpolation-filters:linearRGB;solid-color:#000000;solid-opacity:1;fill:#26a69a;fill-opacity:1;fill-rule:evenodd;stroke:none;stroke-width:2.3039999;stroke-linecap:butt;stroke-linejoin:miter;stroke-miterlimit:10;stroke-dasharray:none;stroke-dashoffset:0;stroke-opacity:1;color-rendering:auto;image-rendering:auto;shape-rendering:auto;text-rendering:auto;enable-background:accumulate" />
      <g
         style="stroke:#ffffff;stroke-width:2.45877957;stroke-linecap:butt;stroke-linejoin:round;stroke-miterlimit:4;stroke-dasharray:none;stroke-opacity:1"
         id="g5885"
         transform="matrix(1.2201175,0,0,1.2201175,-203.1343,1253.1735)">
        <path
           sodipodi:nodetypes="cccc"
           inkscape:connector-curvature="0"
           id="path5887"
           d="m -900.66581,3742.2655 c -26.34354,-6.4372 -61.79811,10.3189 -83.81908,30.3249 m -17.38241,21.6789 c -5.6839,11.701 -3.873,22.0595 10.0887,26.9567"
           style="fill:none;fill-rule:evenodd;stroke:#ffffff;stroke-width:2.45877957;stroke-linecap:butt;stroke-linejoin:round;stroke-miterlimit:4;stroke-dasharray:none;stroke-opacity:1" />
        <path
           sodipodi:nodetypes="cc"
           inkscape:connector-curvature="0"
           id="path5889"
           d="m -1026.0499,3745.6535 c -6.6531,56.0922 141.96278,13.9824 139.76568,-28.144"
           style="color:#000000;clip-rule:nonzero;display:inline;overflow:visible;visibility:visible;opacity:1;isolation:auto;mix-blend-mode:normal;color-interpolation:sRGB;color-interpolation-filters:linearRGB;solid-color:#000000;solid-opacity:1;fill:none;fill-opacity:1;fill-rule:evenodd;stroke:#ffffff;stroke-width:2.45877957;stroke-linecap:butt;stroke-linejoin:round;stroke-miterlimit:4;stroke-dasharray:none;stroke-dashoffset:0;stroke-opacity:1;color-rendering:auto;image-rendering:auto;shape-rendering:auto;text-rendering:auto;enable-background:accumulate" />
        <path
           style="fill:none;fill-opacity:0.43404254;fill-rule:evenodd;stroke:#ffffff;stroke-width:2.45877957;stroke-linecap:butt;stroke-linejoin:round;stroke-miterlimit:4;stroke-dasharray:none;stroke-opacity:1"
           d="m -863.25268,3836.9317 c -10.9798,-29.7112 -141.11762,28.7816 -162.06082,3.1061 -7.0242,-8.6112 -7.77,-22.6343 -4.5334,-38.6965"
           id="path5891"
           inkscape:connector-curvature="0"
           sodipodi:nodetypes="scc" />
        <path
           sodipodi:nodetypes="ccsccccscc"
           inkscape:connector-curvature="0"
           id="path5893"
           d="m -881.8078,3828.3732 c -18.33447,31.0128 -38.20099,43.9922 -79.41775,54.2243 7.84438,3.9136 72.96054,5.0696 98.1271,-45.7582 49.85346,-100.6869 -124.03179,5.6345 -160.88325,-16.6668 -9.9219,-7.922 -7.8202,-20.4505 1.3345,-34.2099 m 13.0596,-15.8691 c 34.47547,-35.6038 101.50167,-70.9625 122.85496,-52.95 90.32827,74.544 -180.25896,117.9793 -142.61126,34.837 14.6936,-32.4497 47.11584,-52.5279 83.03094,-54.3753 -38.96904,12.2758 -63.03384,32.0296 -70.14184,69.1751"
           style="fill:none;fill-rule:evenodd;stroke:#ffffff;stroke-width:2.45877957;stroke-linecap:butt;stroke-linejoin:round;stroke-miterlimit:4;stroke-dasharray:none;stroke-opacity:1" />
      </g>
      <g
         transform="matrix(1.2201175,0,0,1.2201175,-203.1343,1253.1735)"
         id="g5895"
         style="stroke:#ffffff;stroke-width:2.45877957;stroke-linecap:butt;stroke-linejoin:round;stroke-miterlimit:4;stroke-dasharray:none;stroke-opacity:1">
        <path
           style="fill:none;fill-rule:evenodd;stroke:#ffffff;stroke-width:2.45877957;stroke-linecap:butt;stroke-linejoin:round;stroke-miterlimit:4;stroke-dasharray:none;stroke-opacity:1"
           d="m -900.66581,3742.2655 c -26.34354,-6.4372 -61.79811,10.3189 -83.81908,30.3249 m -17.38241,21.6789 c -5.6839,11.701 -3.873,22.0595 10.0887,26.9567"
           id="path5897"
           inkscape:connector-curvature="0"
           sodipodi:nodetypes="cccc" />
        <path
           style="color:#000000;clip-rule:nonzero;display:inline;overflow:visible;visibility:visible;opacity:1;isolation:auto;mix-blend-mode:normal;color-interpolation:sRGB;color-interpolation-filters:linearRGB;solid-color:#000000;solid-opacity:1;fill:none;fill-opacity:1;fill-rule:evenodd;stroke:#ffffff;stroke-width:2.45877957;stroke-linecap:butt;stroke-linejoin:round;stroke-miterlimit:4;stroke-dasharray:none;stroke-dashoffset:0;stroke-opacity:1;color-rendering:auto;image-rendering:auto;shape-rendering:auto;text-rendering:auto;enable-background:accumulate"
           d="m -1026.0499,3745.6535 c -6.6531,56.0922 141.96278,13.9824 139.76568,-28.144"
           id="path5899"
           inkscape:connector-curvature="0"
           sodipodi:nodetypes="cc" />
        <path
           sodipodi:nodetypes="scc"
           inkscape:connector-curvature="0"
           id="path5901"
           d="m -863.25268,3836.9317 c -10.9798,-29.7112 -141.11762,28.7816 -162.06082,3.1061 -7.0242,-8.6112 -7.77,-22.6343 -4.5334,-38.6965"
           style="fill:none;fill-opacity:0.43404254;fill-rule:evenodd;stroke:#ffffff;stroke-width:2.45877957;stroke-linecap:butt;stroke-linejoin:round;stroke-miterlimit:4;stroke-dasharray:none;stroke-opacity:1" />
        <path
           style="fill:none;fill-rule:evenodd;stroke:#ffffff;stroke-width:2.45877957;stroke-linecap:butt;stroke-linejoin:round;stroke-miterlimit:4;stroke-dasharray:none;stroke-opacity:1"
           d="m -881.8078,3828.3732 c -18.33447,31.0128 -38.20099,43.9922 -79.41775,54.2243 7.84438,3.9136 72.96054,5.0696 98.1271,-45.7582 49.85346,-100.6869 -124.03179,5.6345 -160.88325,-16.6668 -9.9219,-7.922 -7.8202,-20.4505 1.3345,-34.2099 m 13.0596,-15.8691 c 34.47547,-35.6038 101.50167,-70.9625 122.85496,-52.95 90.32827,74.544 -180.25896,117.9793 -142.61126,34.837 14.6936,-32.4497 47.11584,-52.5279 83.03094,-54.3753 -38.96904,12.2758 -63.03384,32.0296 -70.14184,69.1751"
           id="path5903"
           inkscape:connector-curvature="0"
           sodipodi:nodetypes="ccsccccscc" />
      </g>
    </g>
  </g>
</svg>
