<?xml version="1.0" encoding="UTF-8" standalone="no"?>
<!-- Created with Inkscape (http://www.inkscape.org/) -->

<svg
   xmlns:dc="http://purl.org/dc/elements/1.1/"
   xmlns:cc="http://creativecommons.org/ns#"
   xmlns:rdf="http://www.w3.org/1999/02/22-rdf-syntax-ns#"
   xmlns:svg="http://www.w3.org/2000/svg"
   xmlns="http://www.w3.org/2000/svg"
   xmlns:sodipodi="http://sodipodi.sourceforge.net/DTD/sodipodi-0.dtd"
   xmlns:inkscape="http://www.inkscape.org/namespaces/inkscape"
   width="190.46262mm"
   height="166.72302mm"
   viewBox="0 0 674.86754 590.75086"
   id="svg2"
   version="1.1"
   inkscape:version="0.91 r13725"
   sodipodi:docname="remove.svg">
  <defs
     id="defs4" />
  <sodipodi:namedview
     id="base"
     pagecolor="#ffffff"
     bordercolor="#666666"
     borderopacity="1.0"
     inkscape:pageopacity="0.0"
     inkscape:pageshadow="2"
     inkscape:zoom="0.7"
     inkscape:cx="341.49303"
     inkscape:cy="546.0352"
     inkscape:document-units="px"
     inkscape:current-layer="layer1"
     showgrid="false"
     fit-margin-top="0"
     fit-margin-left="0"
     fit-margin-right="0"
     fit-margin-bottom="0"
     inkscape:window-width="1851"
     inkscape:window-height="1053"
     inkscape:window-x="69"
     inkscape:window-y="27"
     inkscape:window-maximized="1" />
  <metadata
     id="metadata7">
    <rdf:RDF>
      <cc:Work
         rdf:about="">
        <dc:format>image/svg+xml</dc:format>
        <dc:type
           rdf:resource="http://purl.org/dc/dcmitype/StillImage" />
        <dc:title></dc:title>
      </cc:Work>
    </rdf:RDF>
  </metadata>
  <g
     inkscape:label="Calque 1"
     inkscape:groupmode="layer"
     id="layer1"
     transform="translate(100.49123,-127.4194)">
    <ellipse
       style="color:#000000;clip-rule:nonzero;display:inline;overflow:visible;visibility:visible;opacity:1;isolation:auto;mix-blend-mode:normal;color-interpolation:sRGB;color-interpolation-filters:linearRGB;solid-color:#000000;solid-opacity:1;fill:none;fill-opacity:1;fill-rule:nonzero;stroke:#000000;stroke-width:5;stroke-linecap:butt;stroke-linejoin:miter;stroke-miterlimit:4;stroke-dasharray:none;stroke-dashoffset:0;stroke-opacity:1;color-rendering:auto;image-rendering:auto;shape-rendering:auto;text-rendering:auto;enable-background:accumulate"
       id="path4136"
       cx="194.71922"
       cy="179.43362"
       rx="49.01918"
       ry="49.514229" />
    <ellipse
       style="color:#000000;clip-rule:nonzero;display:inline;overflow:visible;visibility:visible;opacity:1;isolation:auto;mix-blend-mode:normal;color-interpolation:sRGB;color-interpolation-filters:linearRGB;solid-color:#000000;solid-opacity:1;fill:none;fill-opacity:1;fill-rule:nonzero;stroke:#000000;stroke-width:5;stroke-linecap:butt;stroke-linejoin:miter;stroke-miterlimit:4;stroke-dasharray:none;stroke-dashoffset:0;stroke-opacity:1;color-rendering:auto;image-rendering:auto;shape-rendering:auto;text-rendering:auto;enable-background:accumulate"
       id="path4136-3"
       cx="522.85712"
       cy="316.64792"
       rx="49.01918"
       ry="49.514229" />
    <ellipse
       style="color:#000000;clip-rule:nonzero;display:inline;overflow:visible;visibility:visible;opacity:1;isolation:auto;mix-blend-mode:normal;color-interpolation:sRGB;color-interpolation-filters:linearRGB;solid-color:#000000;solid-opacity:1;fill:none;fill-opacity:1;fill-rule:nonzero;stroke:#000000;stroke-width:5;stroke-linecap:butt;stroke-linejoin:miter;stroke-miterlimit:4;stroke-dasharray:none;stroke-dashoffset:0;stroke-opacity:1;color-rendering:auto;image-rendering:auto;shape-rendering:auto;text-rendering:auto;enable-background:accumulate"
       id="path4136-6"
       cx="81.428574"
       cy="316.64792"
       rx="49.01918"
       ry="49.514229" />
    <ellipse
       style="color:#000000;clip-rule:nonzero;display:inline;overflow:visible;visibility:visible;opacity:1;isolation:auto;mix-blend-mode:normal;color-interpolation:sRGB;color-interpolation-filters:linearRGB;solid-color:#000000;solid-opacity:1;fill:none;fill-opacity:1;fill-rule:nonzero;stroke:#000000;stroke-width:5;stroke-linecap:butt;stroke-linejoin:miter;stroke-miterlimit:4;stroke-dasharray:none;stroke-dashoffset:0;stroke-opacity:0.38630138;color-rendering:auto;image-rendering:auto;shape-rendering:auto;text-rendering:auto;enable-background:accumulate"
       id="path4136-7"
       cx="81.428574"
       cy="530.36218"
       rx="49.01918"
       ry="49.514229" />
    <ellipse
       style="color:#000000;clip-rule:nonzero;display:inline;overflow:visible;visibility:visible;opacity:1;isolation:auto;mix-blend-mode:normal;color-interpolation:sRGB;color-interpolation-filters:linearRGB;solid-color:#000000;solid-opacity:1;fill:none;fill-opacity:1;fill-rule:nonzero;stroke:#000000;stroke-width:5;stroke-linecap:butt;stroke-linejoin:miter;stroke-miterlimit:4;stroke-dasharray:none;stroke-dashoffset:0;stroke-opacity:1;color-rendering:auto;image-rendering:auto;shape-rendering:auto;text-rendering:auto;enable-background:accumulate"
       id="path4136-5"
       cx="522.85712"
       cy="530.36218"
       rx="49.01918"
       ry="49.514229" />
    <path
       style="fill:none;fill-rule:evenodd;stroke:#000000;stroke-width:5;stroke-linecap:butt;stroke-linejoin:miter;stroke-miterlimit:4;stroke-dasharray:none;stroke-opacity:1"
       d="M 163.32396,217.45865 112.82384,278.6229"
       id="path4171"
       inkscape:connector-type="polyline"
       inkscape:connector-curvature="0"
       inkscape:connection-start="#path4136"
       inkscape:connection-end="#path4136-6" />
    <path
       style="fill:none;fill-rule:evenodd;stroke:#000000;stroke-width:5;stroke-linecap:butt;stroke-linejoin:miter;stroke-miterlimit:4;stroke-dasharray:10, 10;stroke-dashoffset:0;stroke-opacity:0.38630138"
       d="m 81.428574,366.16215 0,114.6858"
       id="path4173"
       inkscape:connector-type="polyline"
       inkscape:connector-curvature="0"
       inkscape:connection-start="#path4136-6"
       inkscape:connection-end="#path4136-7" />
    <path
       style="fill:none;fill-rule:evenodd;stroke:#000000;stroke-width:5;stroke-linecap:butt;stroke-linejoin:miter;stroke-miterlimit:4;stroke-dasharray:none;stroke-opacity:1"
       d="M 240.01073,198.37274 477.56561,297.7088"
       id="path4175"
       inkscape:connector-type="polyline"
       inkscape:connector-curvature="0"
       inkscape:connection-start="#path4136"
       inkscape:connection-end="#path4136-3" />
    <path
       style="fill:none;fill-rule:evenodd;stroke:#000000;stroke-width:5;stroke-linecap:butt;stroke-linejoin:miter;stroke-miterlimit:4;stroke-dasharray:none;stroke-opacity:1"
       d="m 473.83794,316.64792 -343.39019,0"
       id="path4177"
       inkscape:connector-type="polyline"
       inkscape:connector-curvature="0"
       inkscape:connection-start="#path4136-3"
       inkscape:connection-end="#path4136-6" />
    <path
       style="fill:none;fill-rule:evenodd;stroke:#000000;stroke-width:5;stroke-linecap:butt;stroke-linejoin:miter;stroke-miterlimit:4;stroke-dasharray:none;stroke-opacity:1"
       d="m 522.85712,366.16215 0,114.6858"
       id="path4179"
       inkscape:connector-type="polyline"
       inkscape:connector-curvature="0"
       inkscape:connection-start="#path4136-3"
       inkscape:connection-end="#path4136-5" />
    <path
       style="fill:none;fill-rule:evenodd;stroke:#000000;stroke-width:5;stroke-linecap:butt;stroke-linejoin:miter;stroke-miterlimit:4;stroke-dasharray:10, 10;stroke-dashoffset:0;stroke-opacity:0.38630138"
       d="m 473.87871,532.36218 -343.47173,0"
       id="path4181"
       inkscape:connector-type="polyline"
       inkscape:connector-curvature="0"
       inkscape:connection-start="#path4136-5"
       inkscape:connection-end="#path4136-7" />
    <path
       style="fill:none;fill-rule:evenodd;stroke:#000000;stroke-width:5;stroke-linecap:butt;stroke-linejoin:miter;stroke-miterlimit:4;stroke-dasharray:none;stroke-opacity:1"
       d="M 125.55442,338.21103 477.98417,510.43398"
       id="path4183"
       inkscape:connector-type="polyline"
       inkscape:connector-curvature="0"
       inkscape:connection-start="#path4136-6"
       inkscape:connection-end="#path4136-5" />
    <path
       style="fill:#00897b;fill-opacity:1"
       d="m -59.430623,717.44811 c -1.284844,-0.95314 -1.210709,-0.16652 -6.332682,-67.18936 -0.361292,-4.7276 -0.819916,-8.85352 -1.019163,-9.1687 -0.199254,-0.31517 -0.534065,-4.18321 -0.744029,-8.59565 -0.209957,-4.41244 -0.6286,-11.06679 -0.930308,-14.78744 -0.373859,-4.61048 -0.35861,-7.11984 0.04785,-7.87936 0.583565,-1.09044 1.640063,-1.11451 48.928299,-1.11451 41.208905,0 48.432074,0.1208 49.011873,0.8194 0.666949,0.80363 0.420907,12.02835 -0.329522,15.03334 -0.170332,0.68203 -0.514365,4.80794 -0.764527,9.1687 -0.250156,4.36074 -0.990953,13.98851 -1.646216,21.39509 -1.609136,18.18846 -2.227484,25.65613 -2.965598,35.81523 -0.343488,4.72761 -0.868831,10.96043 -1.167433,13.85074 -0.298574,2.89027 -0.542885,6.67923 -0.542885,8.41991 0,5.32684 3.17382,4.94892 -41.563642,4.94892 -30.316164,0 -39.231759,-0.15971 -39.982017,-0.71631 z m 43.295,-16.64462 c 0.92648,-1.06415 1.007743,-3.49012 1.067414,-31.86523 0.09627,-45.78303 0.286373,-42.50426 -2.533311,-43.69441 -2.539529,-1.07188 -3.967657,-0.96569 -5.030383,0.37403 -0.805866,1.01594 -0.921426,5.2783 -1.017588,37.53435 -0.05967,20.01355 0.09744,36.69554 0.349138,37.07105 0.806519,1.20328 3.832401,2.46598 5.015817,2.0931 0.630347,-0.19862 1.597358,-0.87939 2.148913,-1.51289 z m -21.583083,-0.22423 c 1.025765,-1.10684 1.341151,-1.95305 1.121268,-3.00848 -0.168256,-0.80771 -0.554614,-6.36806 -0.858574,-12.35637 -1.023089,-20.15612 -2.324671,-41.2463 -2.652401,-42.97827 -0.178915,-0.94552 -0.628067,-4.92204 -0.99811,-8.83673 -0.663235,-7.01646 -0.697244,-7.13199 -2.391929,-8.12398 -2.474311,-1.44843 -4.010188,-1.32798 -5.144723,0.40354 -0.818083,1.24855 -0.925425,2.40064 -0.654066,7.01978 0.178549,3.03936 0.353952,6.2997 0.38979,7.24522 0.03581,0.94552 0.295719,5.71611 0.577525,10.60131 0.281805,4.88519 0.77386,13.52383 1.093459,19.19695 1.415778,25.13134 1.838764,29.4925 3.004186,30.97404 1.565172,1.98984 4.601695,1.92594 6.513575,-0.13701 z m 42.4133894,1.10139 c 1.587629,-1.06007 2.015549,-3.95698 3.083112,-20.87197 0.622841,-9.86862 1.406971,-22.32675 1.742499,-27.68471 -0.275548,-4.4318 2.1289486,-24.99164 0.5295386,-27.26347 -1.3540336,-1.90158 -3.2537756,-2.1775 -5.3837336,-0.78186 -1.752722,1.14839 -2.791163,5.36277 -2.731859,11.0869 0.02453,2.36685 -0.112981,4.55828 -0.305558,4.8699 -0.192571,0.31157 -0.4303272,1.99855 -0.5283462,3.74886 -0.098013,1.75024 -0.68576708,11.17624 -1.30610958,20.94663 -0.6203483,9.7704 -1.29864292,21.40759 -1.50731682,25.86037 -0.3631494,7.74898 -0.327288,8.14816 0.83652922,9.31196 1.213202,1.21319 4.27806838,1.64085 5.57124438,0.77739 z M -96.725242,605.5146 c -3.199846,-3.7484 -4.201108,-5.79416 -3.601108,-7.35777 0.17245,-0.44939 1.68301,-1.83994 3.356796,-3.09015 1.673802,-1.25016 3.559005,-2.76041 4.189353,-3.35609 0.630348,-0.59566 2.177563,-1.84737 3.438259,-2.78157 1.260697,-0.93419 2.421114,-1.83972 2.578697,-2.01229 0.157591,-0.17256 3.638826,-3.00918 7.736089,-6.30359 4.097264,-3.29441 7.743126,-6.24913 8.101926,-6.56602 0.954456,-0.84302 2.277831,-1.92545 10.074863,-8.24057 3.870423,-3.1348 10.795373,-8.75267 15.388782,-12.48416 4.593408,-3.73147 9.331722,-7.55812 10.529579,-8.50364 1.197861,-0.94552 4.745806,-3.84656 7.884326,-6.44674 5.726207,-4.74402 6.879377,-5.28694 8.481401,-3.99309 1.898459,1.53329 6.871744,8.02341 6.871744,8.96763 0,1.05841 -1.826416,2.7083 -12.591287,11.37428 -7.607709,6.1244 -6.424157,5.15888 -14.914803,12.16712 -3.624501,2.99169 -7.534693,6.1441 -8.689312,7.00536 -1.15462,0.86126 -2.443969,1.90173 -2.865218,2.31214 -0.421251,0.41042 -3.860343,3.23 -7.642431,6.26572 -7.723441,6.1993 -16.913318,13.64968 -26.540284,21.5166 -3.566073,2.9141 -6.952646,5.29837 -7.525731,5.29837 -0.5756,0 -2.483056,-1.68813 -4.261641,-3.77154 z M 1.4870894,593.09767 c -0.72976558,-2.35447 -4.3148122,-13.00877 -6.0921871,-18.10521 -0.4775628,-1.36937 -0.7481657,-2.60991 -0.6013294,-2.75674 0.1468371,-0.14683 7.4285415,3.26017 16.1815761,7.57111 11.263,5.54714 15.665419,7.97755 15.062067,8.3152 -1.501094,0.84005 -21.6782676,7.41105 -22.7566666,7.41105 -0.721439,0 -1.269108,-0.7437 -1.79346,-2.43541 z m 10.7877336,-16.32016 -7.2615106,-3.77772 2.202407,-3.48921 c 4.9113786,-7.78097 11.0665036,-13.34954 18.5286416,-16.76299 5.860414,-2.68075 9.183615,-3.2252 17.825272,-2.92035 8.166204,0.28808 12.809869,1.44772 21.311543,5.32207 7.503267,3.41934 7.48168,3.44374 -2.871653,3.24666 -7.505691,-0.14287 -10.296786,0.0402 -14.893661,0.97705 -11.538823,2.35156 -20.209082,8.41089 -24.427782,17.07168 -1.10311,2.26463 -2.263523,4.11594 -2.578697,4.11403 -0.315174,-0.002 -3.840727,-1.70347 -7.83456,-3.78122 z m -84.539554,-9.70968 c -1.2479,-1.63683 -1.596225,-2.69675 -1.565454,-4.7635 0.03598,-2.41585 0.289371,-2.89009 2.779018,-5.20103 4.478203,-4.15677 6.531327,-5.22251 9.482157,-4.922 2.026025,0.20633 2.951009,0.68835 4.441088,2.31432 1.03514,1.12953 1.882076,2.26737 1.882076,2.52854 0,0.26116 -2.225616,2.26343 -4.945813,4.4495 -2.720204,2.18606 -5.910361,4.81273 -7.089243,5.83705 -1.178876,1.02432 -2.421378,1.86239 -2.761107,1.86239 -0.339729,0 -1.339954,-0.94737 -2.222722,-2.10527 z"
       id="path4204"
       inkscape:connector-curvature="0"
       sodipodi:nodetypes="cscssssccsssssscssscssssscssscsscsscssscccscssssscscsscssssssssssssssscsscssssscssssssscsssssssssss" />
    <text
       xml:space="preserve"
       style="font-style:normal;font-variant:normal;font-weight:normal;font-stretch:normal;font-size:34.60807037px;line-height:125%;font-family:Arial;-inkscape-font-specification:'Arial, Normal';text-align:start;letter-spacing:0px;word-spacing:0px;writing-mode:lr-tb;text-anchor:start;fill:#000000;fill-opacity:1;stroke:none;stroke-width:1px;stroke-linecap:butt;stroke-linejoin:miter;stroke-opacity:1"
       x="38.683887"
       y="543.5274"
       id="text4206"
       sodipodi:linespacing="125%"><tspan
         sodipodi:role="line"
         id="tspan4208"
         x="38.683887"
         y="543.5274">UUID</tspan></text>
    <text
       sodipodi:linespacing="125%"
       id="text4214"
       y="328.82327"
       x="38.683887"
       style="font-style:normal;font-variant:normal;font-weight:normal;font-stretch:normal;font-size:34.60807037px;line-height:125%;font-family:Arial;-inkscape-font-specification:'Arial, Normal';text-align:start;letter-spacing:0px;word-spacing:0px;writing-mode:lr-tb;text-anchor:start;fill:#000000;fill-opacity:1;stroke:none;stroke-width:1px;stroke-linecap:butt;stroke-linejoin:miter;stroke-opacity:1"
       xml:space="preserve"><tspan
         y="328.82327"
         x="38.683887"
         id="tspan4216"
         sodipodi:role="line">UUID</tspan></text>
    <text
       sodipodi:linespacing="125%"
       id="text4218"
       y="543.5274"
       x="480.11243"
       style="font-style:normal;font-variant:normal;font-weight:normal;font-stretch:normal;font-size:34.60807037px;line-height:125%;font-family:Arial;-inkscape-font-specification:'Arial, Normal';text-align:start;letter-spacing:0px;word-spacing:0px;writing-mode:lr-tb;text-anchor:start;fill:#000000;fill-opacity:1;stroke:none;stroke-width:1px;stroke-linecap:butt;stroke-linejoin:miter;stroke-opacity:1"
       xml:space="preserve"><tspan
         y="543.5274"
         x="480.11243"
         id="tspan4220"
         sodipodi:role="line">UUID</tspan></text>
    <text
       xml:space="preserve"
       style="font-style:normal;font-variant:normal;font-weight:normal;font-stretch:normal;font-size:34.60807037px;line-height:125%;font-family:Arial;-inkscape-font-specification:'Arial, Normal';text-align:start;letter-spacing:0px;word-spacing:0px;writing-mode:lr-tb;text-anchor:start;fill:#000000;fill-opacity:1;stroke:none;stroke-width:1px;stroke-linecap:butt;stroke-linejoin:miter;stroke-opacity:1"
       x="480.11243"
       y="328.82327"
       id="text4222"
       sodipodi:linespacing="125%"><tspan
         sodipodi:role="line"
         id="tspan4224"
         x="480.11243"
         y="328.82327">UUID</tspan></text>
    <text
       xml:space="preserve"
       style="font-style:normal;font-variant:normal;font-weight:normal;font-stretch:normal;font-size:34.60807037px;line-height:125%;font-family:Arial;-inkscape-font-specification:'Arial, Normal';text-align:start;letter-spacing:0px;word-spacing:0px;writing-mode:lr-tb;text-anchor:start;fill:#000000;fill-opacity:1;stroke:none;stroke-width:1px;stroke-linecap:butt;stroke-linejoin:miter;stroke-opacity:1"
       x="151.97453"
       y="191.60898"
       id="text4226"
       sodipodi:linespacing="125%"><tspan
         sodipodi:role="line"
         id="tspan4228"
         x="151.97453"
         y="191.60898">UUID</tspan></text>
  </g>
</svg>
