<?xml version="1.0" encoding="UTF-8" standalone="no"?>
<!-- Created with Inkscape (http://www.inkscape.org/) -->

<svg
   xmlns:dc="http://purl.org/dc/elements/1.1/"
   xmlns:cc="http://creativecommons.org/ns#"
   xmlns:rdf="http://www.w3.org/1999/02/22-rdf-syntax-ns#"
   xmlns:svg="http://www.w3.org/2000/svg"
   xmlns="http://www.w3.org/2000/svg"
   xmlns:sodipodi="http://sodipodi.sourceforge.net/DTD/sodipodi-0.dtd"
   xmlns:inkscape="http://www.inkscape.org/namespaces/inkscape"
   width="101.66867mm"
   height="19.587193mm"
   viewBox="0 0 360.24332 69.403438"
   id="svg4166"
   version="1.1"
   inkscape:version="0.91 r13725"
   sodipodi:docname="social_logos.svg">
  <defs
     id="defs4168" />
  <sodipodi:namedview
     id="base"
     pagecolor="#ffffff"
     bordercolor="#666666"
     borderopacity="1.0"
     inkscape:pageopacity="0.0"
     inkscape:pageshadow="2"
     inkscape:zoom="1.4"
     inkscape:cx="79.556959"
     inkscape:cy="-107.61863"
     inkscape:document-units="px"
     inkscape:current-layer="layer1"
     showgrid="false"
     inkscape:window-width="1851"
     inkscape:window-height="1053"
     inkscape:window-x="69"
     inkscape:window-y="27"
     inkscape:window-maximized="1"
     fit-margin-top="0"
     fit-margin-left="0"
     fit-margin-right="0"
     fit-margin-bottom="0" />
  <metadata
     id="metadata4171">
    <rdf:RDF>
      <cc:Work
         rdf:about="">
        <dc:format>image/svg+xml</dc:format>
        <dc:type
           rdf:resource="http://purl.org/dc/dcmitype/StillImage" />
        <dc:title></dc:title>
      </cc:Work>
    </rdf:RDF>
  </metadata>
  <g
     inkscape:label="Calque 1"
     inkscape:groupmode="layer"
     id="layer1"
     transform="translate(-167.73546,-33.780406)">
    <g
       id="g4166"
       transform="matrix(12.455717,0,0,12.455716,-102.72761,-3521.2329)"
       style="fill:#00897b;fill-opacity:1"
       inkscape:export-xdpi="149.8987"
       inkscape:export-ydpi="149.8987">
      <path
         id="path4"
         d="m 42.57033,286.99672 c 0.0038,0.0524 0.0038,0.10482 0.0038,0.15722 0,1.5983 -1.216504,3.43992 -3.439916,3.43992 -0.684993,0 -1.321317,-0.1984 -1.856584,-0.54275 0.09732,0.0112 0.190893,0.015 0.291962,0.015 0.565199,0 1.085501,-0.19089 1.500986,-0.51655 -0.531522,-0.0112 -0.976952,-0.35933 -1.130423,-0.83846 0.07487,0.0112 0.149725,0.0187 0.228339,0.0187 0.108546,0 0.217104,-0.015 0.318162,-0.0412 -0.553978,-0.1123 -0.969475,-0.59891 -0.969475,-1.18657 l 0,-0.015 c 0.160947,0.0898 0.348118,0.14599 0.546488,0.15346 -0.325651,-0.2171 -0.538999,-0.58766 -0.538999,-1.0069 0,-0.22458 0.05987,-0.43045 0.164692,-0.61012 0.595157,0.73365 1.489764,1.21276 2.492908,1.26517 -0.01871,-0.0898 -0.02995,-0.1834 -0.02995,-0.27699 0,-0.66627 0.539012,-1.20901 1.209025,-1.20901 0.348108,0 0.662525,0.14597 0.883374,0.38179 0.273238,-0.0524 0.535256,-0.15348 0.767338,-0.29197 -0.08985,0.28075 -0.280739,0.51656 -0.531522,0.66627 0.243307,-0.0262 0.479122,-0.0936 0.696215,-0.18714 -0.164669,0.23955 -0.370551,0.4529 -0.606367,0.62509 z"
         style="fill:#00897b;fill-opacity:1"
         inkscape:connector-curvature="0" />
      <path
         id="path4-3"
         d="m 34.611431,285.61739 -4.425511,0 c -0.202783,0 -0.367546,0.16707 -0.367546,0.37215 l 0,4.41745 c 0,0.20509 0.164763,0.37215 0.367546,0.37215 l 4.425511,0 c 0.202783,0 0.368696,-0.16706 0.368696,-0.37215 l 0,-4.41745 c 0,-0.20508 -0.165913,-0.37215 -0.368696,-0.37215 z m -3.233008,4.42436 -0.765046,0 0,-2.46335 0.766197,0 0,2.46335 z M 30.9959,287.24196 c -0.245414,0 -0.443589,-0.19932 -0.443589,-0.44359 0,-0.24426 0.198175,-0.44358 0.443589,-0.44358 0.244262,0 0.443587,0.19932 0.443587,0.44358 0,0.24541 -0.198174,0.44359 -0.443587,0.44359 z m 3.250291,2.79979 -0.765045,0 0,-1.19826 c 0,-0.28574 -0.0057,-0.65329 -0.397502,-0.65329 -0.398652,0 -0.459718,0.31109 -0.459718,0.63255 l 0,1.219 -0.765046,0 0,-2.46335 0.733937,0 0,0.33643 0.01037,0 c 0.102542,-0.19356 0.352565,-0.3975 0.724718,-0.3975 0.774263,0 0.918286,0.51041 0.918286,1.17407 l 0,1.35035 z"
         style="fill:#00897b;fill-opacity:1"
         inkscape:connector-curvature="0" />
      <path
         id="path4-6"
         d="m 23.625432,289.89884 c 0,0.023 -0.0265,0.0415 -0.05991,0.0415 -0.03802,0.004 -0.06452,-0.015 -0.06452,-0.0415 0,-0.023 0.0265,-0.0415 0.05992,-0.0415 0.03457,-0.004 0.06452,0.015 0.06452,0.0415 z m -0.358326,-0.0519 c -0.0081,0.023 0.01498,0.0496 0.04954,0.0565 0.02995,0.0115 0.06452,0 0.07143,-0.023 0.0069,-0.023 -0.01498,-0.0496 -0.04954,-0.06 -0.02995,-0.008 -0.06337,0.004 -0.07143,0.0265 z m 0.509262,-0.0196 c -0.03342,0.008 -0.05646,0.0299 -0.053,0.0565 0.0035,0.023 0.03341,0.038 0.06798,0.0299 0.03341,-0.008 0.05646,-0.0299 0.053,-0.053 -0.0035,-0.0219 -0.03457,-0.0369 -0.06798,-0.0334 z M 24.5345,285.4122 c -1.598071,0 -2.82053,1.21324 -2.82053,2.81131 0,1.27776 0.804219,2.37118 1.95294,2.75601 0.147479,0.0265 0.199326,-0.0645 0.199326,-0.13941 0,-0.0714 -0.0035,-0.46549 -0.0035,-0.70744 0,0 -0.806522,0.17282 -0.975893,-0.34335 0,0 -0.131348,-0.33529 -0.320305,-0.4217 0,0 -0.263849,-0.18089 0.01843,-0.17744 0,0 0.286893,0.023 0.44474,0.29727 0.252326,0.44474 0.675176,0.31685 0.839938,0.2408 0.0265,-0.18434 0.101391,-0.31224 0.184348,-0.38828 -0.644066,-0.0714 -1.293895,-0.16476 -1.293895,-1.27316 0,-0.31684 0.08757,-0.47585 0.271914,-0.67863 -0.02996,-0.0749 -0.127892,-0.38367 0.02995,-0.78232 0.240806,-0.0749 0.795004,0.31108 0.795004,0.31108 0.230435,-0.0645 0.478153,-0.0979 0.723565,-0.0979 0.245415,0 0.493133,0.0334 0.723568,0.0979 0,0 0.554198,-0.38713 0.795003,-0.31108 0.157848,0.3998 0.05991,0.70743 0.02995,0.78232 0.184349,0.20394 0.297262,0.36294 0.297262,0.67863 0,1.11185 -0.678632,1.20057 -1.322699,1.27316 0.106,0.091 0.19587,0.26385 0.19587,0.53461 0,0.38829 -0.0035,0.86874 -0.0035,0.96322 0,0.0749 0.053,0.16591 0.199327,0.13942 1.152178,-0.38253 1.933353,-1.47595 1.933353,-2.75371 0,-1.59807 -1.2962,-2.81131 -2.894268,-2.81131 z m -1.700613,3.97386 c -0.01498,0.0115 -0.01153,0.038 0.0081,0.06 0.01843,0.0185 0.04494,0.0265 0.05992,0.0115 0.01498,-0.0115 0.01153,-0.038 -0.0081,-0.0599 -0.01843,-0.0185 -0.04494,-0.0265 -0.05991,-0.0115 z m -0.124435,-0.0933 c -0.0081,0.015 0.0035,0.0334 0.0265,0.045 0.01843,0.0115 0.04148,0.008 0.04954,-0.008 0.0081,-0.015 -0.0035,-0.0334 -0.0265,-0.0449 -0.02305,-0.007 -0.04148,-0.004 -0.04954,0.008 z m 0.373306,0.41018 c -0.01843,0.015 -0.01153,0.0495 0.01498,0.0714 0.0265,0.0265 0.05991,0.0299 0.07489,0.0115 0.01498,-0.015 0.0081,-0.0496 -0.01499,-0.0714 -0.02535,-0.0265 -0.05991,-0.0299 -0.07489,-0.0115 z m -0.13135,-0.16937 c -0.01843,0.0115 -0.01843,0.0415 0,0.068 0.01843,0.0265 0.04954,0.038 0.06452,0.0265 0.01843,-0.015 0.01843,-0.045 0,-0.0714 -0.01614,-0.0265 -0.04609,-0.038 -0.06452,-0.023 z"
         style="fill:#00897b;fill-opacity:1"
         inkscape:connector-curvature="0" />
      <path
         id="path4-7"
         d="m 46.558573,288.8792 c 0,0.29842 -0.243802,0.54222 -0.542215,0.54222 -0.298414,0 -0.542215,-0.2438 -0.542215,-0.54222 0,-0.29841 0.243801,-0.54221 0.542215,-0.54221 l 0.542215,0 0,0.54221 z m 0.273295,0 c 0,-0.29841 0.243802,-0.54221 0.542215,-0.54221 0.298413,0 0.542214,0.2438 0.542214,0.54221 l 0,1.35773 c 0,0.29841 -0.243801,0.54221 -0.542214,0.54221 -0.298413,0 -0.542215,-0.2438 -0.542215,-0.54221 l 0,-1.35773 z m 0.542215,-2.17738 c -0.298413,0 -0.542215,-0.2438 -0.542215,-0.54221 0,-0.29842 0.243802,-0.54222 0.542215,-0.54222 0.298413,0 0.542214,0.2438 0.542214,0.54222 l 0,0.54221 -0.542214,0 z m 0,0.2733 c 0.298413,0 0.542214,0.2438 0.542214,0.54221 0,0.29842 -0.243801,0.54221 -0.542214,0.54221 l -1.357725,0 c -0.298414,0 -0.542215,-0.24379 -0.542215,-0.54221 0,-0.29841 0.243801,-0.54221 0.542215,-0.54221 l 1.357725,0 z m 2.177384,0.54221 c 0,-0.29841 0.2438,-0.54221 0.542213,-0.54221 0.298414,0 0.542216,0.2438 0.542216,0.54221 0,0.29842 -0.243802,0.54221 -0.542216,0.54221 l -0.542213,0 0,-0.54221 z m -0.273296,0 c 0,0.29842 -0.243801,0.54221 -0.542215,0.54221 -0.298414,0 -0.542215,-0.24379 -0.542215,-0.54221 l 0,-1.35772 c 0,-0.29842 0.243801,-0.54222 0.542215,-0.54222 0.298414,0 0.542215,0.2438 0.542215,0.54222 l 0,1.35772 z m -0.542215,2.17738 c 0.298414,0 0.542215,0.24381 0.542215,0.54222 0,0.29841 -0.243801,0.54221 -0.542215,0.54221 -0.298414,0 -0.542215,-0.2438 -0.542215,-0.54221 l 0,-0.54222 0.542215,0 z m 0,-0.27329 c -0.298414,0 -0.542215,-0.2438 -0.542215,-0.54222 0,-0.29841 0.243801,-0.54221 0.542215,-0.54221 l 1.357724,0 c 0.298414,0 0.542216,0.2438 0.542216,0.54221 0,0.29842 -0.243802,0.54222 -0.542216,0.54222 l -1.357724,0 z"
         style="fill:#00897b;fill-opacity:1"
         inkscape:connector-curvature="0" />
    </g>
  </g>
</svg>
